<svg xmlns="http://www.w3.org/2000/svg" xmlns:xlink="http://www.w3.org/1999/xlink" viewBox="0 0 256 256" width="256" height="256">
  <defs><clipPath id="bgc"><rect width="256" height="256" rx="51.2"/></clipPath></defs>
  <rect width="256" height="256" rx="51.2" fill="#f5f5f5"/>
  
  <g opacity="1" transform="translate(128,128) rotate(0)"><svg x="-76.8" y="-76.8" width="153.6" height="153.6" viewBox="0 -37 256 256"><g xmlns="http://www.w3.org/2000/svg" id="SVGRepo_bgCarrier" stroke-width="0"/><g xmlns="http://www.w3.org/2000/svg" id="SVGRepo_tracerCarrier" stroke-linecap="round" stroke-linejoin="round"/><g xmlns="http://www.w3.org/2000/svg" id="SVGRepo_iconCarrier"> <g> <path d="M216.357806,174.771308 C255.135865,205.772152 279.979747,113.201688 218.194093,96.1350211 C166.345992,81.7687764 114.17384,106.396624 61.8936709,163.861603 C61.8936709,163.861603 158.460759,128.540084 216.357806,174.771308 Z" fill="#0B5567"> </path> <path d="M62.7578059,163.105485 C99.9156118,124.54346 161.701266,81.5527426 219.274262,97.4312236 C232.668354,101.211814 242.17384,108.98903 248.330802,118.278481 L193.890295,8.42531646 C186.11308,-3.99662447 166.237975,-1.40421941 155.004219,8.10126582 L11.1257384,128.648101 C-1.9443038,139.881857 -2.70042194,159.864979 9.39746835,171.962869 C20.0911392,182.65654 37.049789,183.628692 48.8236287,174.123207 L62.7578059,163.105485 Z" fill="#15A9CE"> </path> </g> </g></svg></g>
  
</svg>