<svg xmlns="http://www.w3.org/2000/svg" xmlns:xlink="http://www.w3.org/1999/xlink" viewBox="0 0 256 256" width="256" height="256">
  <defs><clipPath id="bgc"><rect width="256" height="256" rx="51.2"/></clipPath></defs>
  <rect width="256" height="256" rx="51.2" fill="#f5f5f5"/>
  
  <g opacity="1" transform="translate(128,128) rotate(0)"><svg x="-76.8" y="-76.8" width="153.6" height="153.6" viewBox="0 0 512 512"><g xmlns="http://www.w3.org/2000/svg" id="SVGRepo_bgCarrier" stroke-width="0"/><g xmlns="http://www.w3.org/2000/svg" id="SVGRepo_tracerCarrier" stroke-linecap="round" stroke-linejoin="round"/><g xmlns="http://www.w3.org/2000/svg" id="SVGRepo_iconCarrier"> <path d="M383.32,227.896H512V447.36c-0.032,11.696-9.504,21.168-21.2,21.2h-86.28c-11.696-0.032-21.168-9.504-21.2-21.2 L383.32,227.896z"/> <g style="opacity:0.25;"> <path style="fill:#FFFFFF;" d="M403.136,227.896l85.952,240.664h1.712c11.696-0.032,21.168-9.504,21.2-21.2V227.896H403.136z"/> </g> <path d="M512,227.896H383.32V64.632c0.032-11.696,9.504-21.168,21.2-21.2h86.28c11.696,0.032,21.168,9.504,21.2,21.2V227.896z"/> <path style="fill:#E21B1B;" d="M284.8,468.568H45.072C20.216,468.496,0.08,448.36,0,423.504V184.688 c0.072-24.864,20.208-45,45.072-45.072H284.8c24.864,0.072,45,20.208,45.072,45.072v238.808 C329.8,448.36,309.664,468.496,284.8,468.568z"/> <g> <path style="fill:#FFFFFF;" d="M137.312,255.024v18.872H154.4v9.096h-17.088V318.4c0,8.144,2.304,12.8,8.96,12.8 c2.328,0.04,4.656-0.232,6.92-0.8l0.544,8.952c-3.4,1.184-6.992,1.728-10.592,1.6c-4.824,0.288-9.528-1.544-12.888-5.016 c-3.632-4.92-5.28-11.032-4.616-17.112v-35.832h-10.176v-9.096h10.176v-15.76L137.312,255.024z"/> <path style="fill:#FFFFFF;" d="M173.696,273.896l12.896,36.92c2.056,5.504,3.816,11.112,5.296,16.8h0.408 c1.496-5.424,3.392-10.848,5.6-16.8l12.76-36.92h12.488l-25.784,65.696h-11.432l-24.984-65.696H173.696z"/> </g> <circle cx="419.76" cy="199.992" r="21.432"/> <path style="fill:#666666;" d="M419.76,222.544c-12.456,0-22.56-10.104-22.56-22.56s10.104-22.56,22.56-22.56 s22.56,10.104,22.56,22.56c0,0.008,0,0.008,0,0.016C442.296,212.448,432.208,222.528,419.76,222.544z M419.76,179.68 c-11.216,0-20.312,9.096-20.312,20.312s9.096,20.312,20.312,20.312s20.304-9.088,20.312-20.304 c-0.008-11.216-9.096-20.312-20.312-20.328V179.68z"/> <circle cx="419.76" cy="254.752" r="21.432"/> <path style="fill:#666666;" d="M419.76,277.296c-12.456,0-22.56-10.104-22.56-22.56s10.104-22.56,22.56-22.56 s22.56,10.104,22.56,22.56l0,0C442.304,267.192,432.216,277.28,419.76,277.296z M419.76,234.432 c-11.216,0-20.312,9.096-20.312,20.312c0,11.216,9.096,20.312,20.312,20.312s20.312-9.096,20.312-20.312 c0-11.224-9.088-20.328-20.312-20.344V234.432z"/> <circle cx="419.76" cy="309.504" r="21.432"/> <path style="fill:#666666;" d="M419.76,332.064c-12.456,0-22.56-10.104-22.56-22.56s10.104-22.56,22.56-22.56 s22.56,10.104,22.56,22.56l0,0C442.304,321.96,432.216,332.048,419.76,332.064z M419.76,289.192 c-11.216,0-20.312,9.096-20.312,20.312s9.096,20.312,20.312,20.312s20.312-9.096,20.312-20.312 c-0.024-11.208-9.104-20.288-20.312-20.304V289.192z"/> <circle cx="475.28" cy="199.992" r="21.432"/> <path style="fill:#666666;" d="M475.288,222.544c-12.456,0-22.56-10.104-22.56-22.56s10.104-22.56,22.56-22.56 s22.56,10.104,22.56,22.56c0,0.008,0,0.008,0,0.016C497.832,212.448,487.736,222.536,475.288,222.544z M475.288,179.68 c-11.216,0-20.312,9.096-20.312,20.312s9.096,20.312,20.312,20.312S495.592,211.216,495.6,200c0-11.224-9.088-20.32-20.312-20.328 V179.68z"/> <path d="M453.672,311.552v-54.56c0-9.064,1.936-13.752,5.712-16.672c8.904-8.456,22.976-8.088,31.432,0.816 c3.832,4.04,6.016,9.368,6.104,14.936v52.112c-0.208,12.28-10.32,22.064-22.6,21.856c-5.568-0.096-10.896-2.272-14.936-6.104 C455.672,320.912,453.568,316.336,453.672,311.552z"/> <path style="fill:#666666;" d="M475.296,235.576c11.312,0.016,20.48,9.184,20.496,20.496v55.2c0.088,4.648-1.976,9.08-5.6,12 c-8.504,7.92-21.816,7.448-29.736-1.056c-3.544-3.808-5.56-8.8-5.64-14.008V256.08c0.008-11.32,9.176-20.488,20.496-20.504 M475.312,233.32c-12.552,0.04-22.712,10.2-22.752,22.752v55.656c-0.096,4.888,2.016,9.552,5.744,12.712 c9.2,9.056,24,8.936,33.056-0.264c4.208-4.272,6.608-10,6.712-15.992v-52.112C498.032,243.52,487.864,233.36,475.312,233.32z"/> <g> <path style="fill:#FFFFFF;" d="M483.264,204h-15.928v-9.504h15.928V204z M468.456,202.872h13.68v-7.28h-13.68V202.872z"/> <rect x="472.32" y="205.584" style="fill:#FFFFFF;" width="6.008" height="1.128"/> <rect x="474.72" y="247.056" style="fill:#FFFFFF;" width="1.128" height="10.72"/> <rect x="469.936" y="251.864" style="fill:#FFFFFF;" width="10.728" height="1.128"/> <rect x="469.936" y="311" style="fill:#FFFFFF;" width="10.728" height="1.128"/> <polygon style="fill:#FFFFFF;" points="412.144,305.536 419.024,309.504 412.144,313.488 "/> <rect x="416.72" y="262.272" style="fill:#FFFFFF;" width="5.776" height="1.128"/> <path style="fill:#FFFFFF;" d="M420.352,257.832h-1.216c-0.816,0-1.48-0.664-1.48-1.48l0,0v-8.2c0-0.816,0.664-1.48,1.48-1.48l0,0 h1.216c0.816,0,1.48,0.664,1.48,1.48l0,0v8.192c0.008,0.816-0.656,1.48-1.472,1.488 C420.36,257.832,420.352,257.832,420.352,257.832z"/> <path style="fill:#FFFFFF;" d="M419.76,260.208c-2.44-0.008-4.416-1.984-4.424-4.424v-2.4h1.128v2.4 c0,1.824,1.48,3.304,3.296,3.304c1.824,0,3.304-1.48,3.304-3.304l0,0v-2.4h1.128v2.4 C424.184,258.232,422.208,260.208,419.76,260.208z"/> <path style="fill:#FFFFFF;" d="M413.064,200.432c-0.056-0.904-0.112-1.992-0.096-2.808l0,0c-0.224,0.8-0.488,1.6-0.8,2.472 l-1.144,3.152h-0.64l-1.056-3.088c-0.312-0.928-0.56-1.768-0.752-2.536l0,0c0,0.8-0.064,1.904-0.12,2.88l-0.176,2.792h-0.8 l0.456-6.504h1.072l1.112,3.152c0.264,0.8,0.488,1.512,0.648,2.184l0,0c0.168-0.648,0.4-1.368,0.68-2.184l1.16-3.152h1.072 l0.408,6.504h-0.8L413.064,200.432z"/> <path style="fill:#FFFFFF;" d="M418.688,200.24h-2.528v2.336h2.808v0.704h-3.664v-6.48h3.52v0.704h-2.664v2.048h2.528 L418.688,200.24z"/> <path style="fill:#FFFFFF;" d="M420.056,203.28v-6.48h0.928l2.08,3.296c0.424,0.68,0.816,1.384,1.16,2.104l0,0 c-0.08-0.856-0.088-1.656-0.088-2.672V196.8h0.8v6.504h-0.848L422.032,200c-0.448-0.696-0.856-1.416-1.216-2.168l0,0 c0.048,0.8,0.064,1.6,0.064,2.68v2.776L420.056,203.28z"/> <path style="fill:#FFFFFF;" d="M427.2,196.8v3.848c0,1.464,0.64,2.08,1.512,2.08s1.6-0.64,1.6-2.08V196.8h0.8v3.792 c0,1.992-1.048,2.824-2.456,2.824s-2.328-0.8-2.328-2.776v-3.84H427.2z"/> </g> <path d="M450.288,64.8h-6.76c-0.84-0.008-1.512-0.68-1.52-1.52v-1.24c0.008-0.84,0.68-1.512,1.52-1.52h6.76 c0.84,0.008,1.512,0.68,1.52,1.52v1.248C451.8,64.128,451.128,64.8,450.288,64.8z"/> <g> <rect x="421.752" y="306.32" style="fill:#FFFFFF;" width="1.112" height="7.12"/> <rect x="425.28" y="306.32" style="fill:#FFFFFF;" width="1.112" height="7.12"/> <rect x="419.12" y="259.784" style="fill:#FFFFFF;" width="1.112" height="3.104"/> </g> </g></svg></g>
  
</svg>