<svg xmlns="http://www.w3.org/2000/svg" xmlns:xlink="http://www.w3.org/1999/xlink" viewBox="0 0 256 256" width="256" height="256">
  <defs><clipPath id="bgc"><rect width="256" height="256" rx="51.2"/></clipPath></defs>
  <rect width="256" height="256" rx="51.2" fill="#002967"/>
  
  <g opacity="1" transform="translate(128,128) rotate(0)"><svg x="-138.24" y="-138.24" width="276.48" height="276.48" viewBox="0 0 1024 1024"><g xmlns="http://www.w3.org/2000/svg" id="SVGRepo_bgCarrier" stroke-width="0"/><g xmlns="http://www.w3.org/2000/svg" id="SVGRepo_tracerCarrier" stroke-linecap="round" stroke-linejoin="round"/><g xmlns="http://www.w3.org/2000/svg" id="SVGRepo_iconCarrier"> <circle cx="512" cy="512" r="512" style="fill:#002967"/> <path d="M714.2 628.8 512 745.5 309.8 628.8V395.3L512 278.5l202.2 116.8v233.5zM512 256 290.3 384v256L512 768l221.7-128V384L512 256zm86.9 110.5H424.7l-20.2 88.8h215.4l-21-88.8zM455.6 577.6v-59L404 485.8l-58.4 43.4 79.6 138.4H457l37.6-35V615l-39-37.4zm113-108.9H455.8l19 49.6L469 574h43l43.4-.2-5.4-55.4 18.6-49.7zm51.6 16.7-51 33.2v59l-39 37.4v17.6l37.6 34.6h31.4l79.2-138-58.2-43.8z" style="fill:#fff"/> </g></svg></g>
  
</svg>