<svg xmlns="http://www.w3.org/2000/svg" xmlns:xlink="http://www.w3.org/1999/xlink" viewBox="0 0 256 256" width="256" height="256">
  <defs><clipPath id="bgc"><rect width="256" height="256" rx="51.2"/></clipPath></defs>
  <rect width="256" height="256" rx="51.2" fill="#f5f5f5"/>
  
  <g opacity="1" transform="translate(127.705,131.2475) rotate(0)"><svg x="-99.84" y="-99.84" width="199.68" height="199.68" viewBox="0 0 16 16"><g xmlns="http://www.w3.org/2000/svg" id="SVGRepo_bgCarrier" stroke-width="0"/><g xmlns="http://www.w3.org/2000/svg" id="SVGRepo_tracerCarrier" stroke-linecap="round" stroke-linejoin="round"/><g xmlns="http://www.w3.org/2000/svg" id="SVGRepo_iconCarrier"><path fill="#1ABCFE" d="M8.55 8c0-1.289 1.019-2.333 2.275-2.333C12.082 5.667 13.1 6.71 13.1 8c0 1.289-1.018 2.333-2.275 2.333C9.57 10.333 8.55 9.29 8.55 8z"/><path fill="#0ACF83" d="M4 12.667c0-1.289 1.019-2.334 2.275-2.334H8.55v2.334C8.55 13.955 7.531 15 6.275 15S4 13.955 4 12.667z"/><path fill="#FF7262" d="M8.55 1v4.667h2.275c1.257 0 2.275-1.045 2.275-2.334C13.1 2.045 12.082 1 10.825 1H8.55z"/><path fill="#F24E1E" d="M4 3.333c0 1.289 1.019 2.334 2.275 2.334H8.55V1H6.275C5.019 1 4 2.045 4 3.333z"/><path fill="#A259FF" d="M4 8c0 1.289 1.019 2.333 2.275 2.333H8.55V5.667H6.275C5.019 5.667 4 6.71 4 8z"/></g></svg></g>
  
</svg>