<svg xmlns="http://www.w3.org/2000/svg" xmlns:xlink="http://www.w3.org/1999/xlink" viewBox="0 0 256 256" width="256" height="256">
  <defs><clipPath id="bgc"><rect width="256" height="256" rx="51.2"/></clipPath></defs>
  <rect width="256" height="256" rx="51.2" fill="#f5f5f5"/>
  
  <g opacity="1" transform="translate(116,128) rotate(0)"><svg x="-84.48" y="-84.48" width="168.96" height="168.96" viewBox="0 0 32 32"><g xmlns="http://www.w3.org/2000/svg" id="SVGRepo_bgCarrier" stroke-width="0"/><g xmlns="http://www.w3.org/2000/svg" id="SVGRepo_tracerCarrier" stroke-linecap="round" stroke-linejoin="round"/><g xmlns="http://www.w3.org/2000/svg" id="SVGRepo_iconCarrier"><title>file_type_flutter</title><polyline points="15.383 18.316 18.744 15.042 27.093 15.042 19.697 22.438 15.383 18.316 15.383 18.316 15.383 18.316 15.383 18.316 15.383 18.316" style="fill:#40d0fd"/><polygon points="4.907 16.125 9.106 20.424 27.093 2.287 18.744 2.287 4.907 16.125" style="fill:#41d0fd;isolation:isolate"/><polygon points="11.176 22.479 15.435 26.675 19.697 22.438 15.383 18.316 11.176 22.479" style="fill:#1fbcfd"/><polygon points="15.435 26.675 19.697 22.438 26.989 29.813 18.593 29.813 15.435 26.675" style="fill:#095a9d"/><polygon points="15.435 26.675 19.406 25.354 18.068 24.057 15.435 26.675" style="fill:#0e5199"/></g></svg></g>
  
</svg>