<svg xmlns="http://www.w3.org/2000/svg" xmlns:xlink="http://www.w3.org/1999/xlink" viewBox="0 0 256 256" width="256" height="256">
  <defs><clipPath id="bgc"><rect width="256" height="256" rx="51.2"/></clipPath></defs>
  <rect width="256" height="256" rx="51.2" fill="#f5f5f5"/>
  
  <g opacity="1" transform="translate(128,128) rotate(0)"><svg x="-99.84" y="-99.84" width="199.68" height="199.68" viewBox="0 0 32 32"><g xmlns="http://www.w3.org/2000/svg" id="SVGRepo_bgCarrier" stroke-width="0"/><g xmlns="http://www.w3.org/2000/svg" id="SVGRepo_tracerCarrier" stroke-linecap="round" stroke-linejoin="round"/><g xmlns="http://www.w3.org/2000/svg" id="SVGRepo_iconCarrier"><path d="M4,16a6,6,0,0,1,12,0Z" fill="#ffba00"/><path d="M22,10a6,6,0,0,1-6,6V4a6,6,0,0,1,6,6" fill="#ea4435"/><path d="M28,16a6,6,0,0,1-12,0Z" fill="#0066da"/><path d="M10,22a6,6,0,0,1,6-6V28a6,6,0,0,1-6-6" fill="#00ac47"/></g></svg></g>
  
</svg>