<svg xmlns="http://www.w3.org/2000/svg" xmlns:xlink="http://www.w3.org/1999/xlink" viewBox="0 0 256 256" width="256" height="256">
  <defs><clipPath id="bgc"><rect width="256" height="256" rx="51.2"/></clipPath></defs>
  <rect width="256" height="256" rx="51.2" fill="#1f2937"/>
  
  <g opacity="1" transform="translate(128,128) rotate(0)"><svg x="-76.8" y="-76.8" width="153.6" height="153.6" viewBox="0 0 32 32"><g xmlns="http://www.w3.org/2000/svg" id="SVGRepo_bgCarrier" stroke-width="0"/><g xmlns="http://www.w3.org/2000/svg" id="SVGRepo_tracerCarrier" stroke-linecap="round" stroke-linejoin="round"/><g xmlns="http://www.w3.org/2000/svg" id="SVGRepo_iconCarrier"><path d="M24,21.45V25a2.0059,2.0059,0,0,1-2,2H9V21h9V16Z" fill="#00ac47"/><polygon fill="#31a950" points="24 11 24 21.45 18 16 18 11 24 11"/><polygon fill="#ea4435" points="9 5 9 11 3 11 9 5"/><rect fill="#4285f4" height="11" width="6" x="3" y="11"/><path d="M24,7v4h-.5L18,16V11H9V5H22A2.0059,2.0059,0,0,1,24,7Z" fill="#ffba00"/><path d="M9,21v6H5a2.0059,2.0059,0,0,1-2-2V21Z" fill="#0066da"/><path d="M29,8.26V23.74a.9989.9989,0,0,1-1.67.74L24,21.45,18,16l5.5-5,.5-.45,3.33-3.03A.9989.9989,0,0,1,29,8.26Z" fill="#00ac47"/><polygon fill="#188038" points="24 10.55 24 21.45 18 16 23.5 11 24 10.55"/></g></svg></g>
  
</svg>