<svg xmlns="http://www.w3.org/2000/svg" xmlns:xlink="http://www.w3.org/1999/xlink" viewBox="0 0 256 256" width="256" height="256">
  <defs><clipPath id="bgc"><rect width="256" height="256" rx="51.2"/></clipPath></defs>
  <rect width="256" height="256" rx="51.2" fill="#1f2937"/>
  
  <g opacity="1" transform="translate(128,128) rotate(0)"><rect x="-35.2" y="-35.2" width="70.4" height="70.4" rx="8.8" fill="#ffffff"/></g>
  <g opacity="1" transform="translate(128,128) rotate(0)"><svg x="-88.32" y="-88.32" width="176.64" height="176.64" viewBox="0 0 32 32"><g xmlns="http://www.w3.org/2000/svg" id="SVGRepo_bgCarrier" stroke-width="0"/><g xmlns="http://www.w3.org/2000/svg" id="SVGRepo_tracerCarrier" stroke-linecap="round" stroke-linejoin="round"/><g xmlns="http://www.w3.org/2000/svg" id="SVGRepo_iconCarrier"><path d="M22,4.5v6H10v11H4V6.5a2.0059,2.0059,0,0,1,2-2Z" fill="#4285f4"/><polygon fill="#ea4435" points="22 27.5 22 21.5 28 21.5 22 27.5"/><rect fill="#ffba00" height="12" width="6" x="22" y="9.5"/><rect fill="#00ac47" height="12" transform="translate(40.5 8.5) rotate(90)" width="6" x="13" y="18.5"/><path d="M28,6.5v4H22v-6h4A2.0059,2.0059,0,0,1,28,6.5Z" fill="#0066da"/><path d="M10,21.5v6H6a2.0059,2.0059,0,0,1-2-2v-4Z" fill="#188038"/><path d="M15.69,17.09c0,.89-.66,1.79-2.15,1.79a3.0026,3.0026,0,0,1-1.52-.39l-.08-.06.29-.82.13.08a2.3554,2.3554,0,0,0,1.17.34,1.191,1.191,0,0,0,.88-.31.8586.8586,0,0,0,.25-.65c-.01-.73-.68-.99-1.31-.99h-.54v-.81h.54c.45,0,1.12-.22,1.12-.82,0-.45-.31-.71-.85-.71a1.8865,1.8865,0,0,0-1.04.34l-.14.1-.28-.79.07-.06a2.834,2.834,0,0,1,1.53-.45c1.19,0,1.72.73,1.72,1.45a1.4369,1.4369,0,0,1-.81,1.3A1.52,1.52,0,0,1,15.69,17.09Z" fill="#4285f4"/><polygon fill="#4285f4" points="18.71 12.98 18.71 18.79 17.73 18.79 17.73 14 16.79 14.51 16.58 13.69 17.95 12.98 18.71 12.98"/></g></svg></g>
  
</svg>