<svg xmlns="http://www.w3.org/2000/svg" xmlns:xlink="http://www.w3.org/1999/xlink" viewBox="0 0 256 256" width="256" height="256">
  <defs><clipPath id="bgc"><rect width="256" height="256" rx="51.2"/></clipPath></defs>
  <rect width="256" height="256" rx="51.2" fill="#f5f5f5"/>
  
  <g opacity="1" transform="translate(128,128) rotate(0)"><svg x="-76.8" y="-76.8" width="153.6" height="153.6" viewBox="0 0 512 512"><g xmlns="http://www.w3.org/2000/svg" id="SVGRepo_bgCarrier" stroke-width="0"/><g xmlns="http://www.w3.org/2000/svg" id="SVGRepo_tracerCarrier" stroke-linecap="round" stroke-linejoin="round"/><g xmlns="http://www.w3.org/2000/svg" id="SVGRepo_iconCarrier"> <polygon points="228.742,507.976 228.742,373.862 186.592,373.862 186.592,335.68 158.658,307.746 158.658,148.537 353.304,148.537 353.304,307.746 325.378,335.68 325.378,373.862 284.844,373.862 284.844,507.976 "/> <path style="fill:#CCCCCC;" d="M349.305,152.537V306.09l-25.599,25.599l-2.344,2.344v35.838h-40.518V504h-48.102V369.863h-42.158 v-35.838l-2.344-2.344l-25.599-25.599V152.537H349.305 M357.304,144.537H154.69v164.864l27.927,27.935v40.526h42.158V512h64.069 V377.862h40.534v-40.526l27.927-27.935C357.312,309.401,357.312,144.537,357.304,144.537z"/> <rect x="180.161" style="fill:#E8E8E8;" width="151.649" height="144.393"/> <g> <rect x="180.169" style="fill:#AAAAAA;" width="10.056" height="144.393"/> <rect x="321.746" style="fill:#AAAAAA;" width="10.056" height="144.393"/> </g> <rect x="205.175" y="61.557" width="32.238" height="25.959"/> <rect x="274.548" y="61.557" width="32.238" height="25.959"/> <path style="fill:#E21B1B;" d="M299.611,309.913h-87.996c-5.464-0.016-9.888-4.44-9.904-9.904V187.367 c0.008-5.472,4.44-9.904,9.912-9.912h87.996c5.472,0.008,9.904,4.44,9.911,9.912V300.01 C309.522,305.482,305.083,309.905,299.611,309.913z M211.615,182.303c-2.792,0.008-5.056,2.272-5.064,5.064V300.01 c0.008,2.792,2.272,5.056,5.064,5.064h87.996c2.792-0.008,5.056-2.272,5.064-5.064V187.367c-0.008-2.792-2.272-5.056-5.064-5.064 L211.615,182.303z"/> <rect x="174.489" y="377.822" width="162.984" height="18.375"/> <g> <path style="fill:#FFFFFF;" d="M256.765,261.34h-2.4v-7.592c0-3.56,4.368-7.136,8.976-10.927c0.984-0.8,1.952-1.6,2.848-2.4 l0.56-0.472c2.704-1.616,4.248-4.624,4-7.76v-10.576h2.4v10.6c0.256,3.848-1.6,7.528-4.856,9.6l-0.552,0.472 c-0.92,0.8-1.904,1.6-2.896,2.4c-3.8,3.112-8.096,6.64-8.096,9.048L256.765,261.34z"/> <rect x="254.341" y="203.374" style="fill:#FFFFFF;" width="2.424" height="74.037"/> <circle style="fill:#FFFFFF;" cx="239.166" cy="234.149" r="6.512"/> <circle style="fill:#FFFFFF;" cx="255.557" cy="283.387" r="9.232"/> <rect x="265.349" y="213.798" style="fill:#FFFFFF;" width="13.247" height="13.247"/> <polygon style="fill:#FFFFFF;" points="248.877,206.318 255.557,194.751 262.237,206.318 "/> <path style="fill:#FFFFFF;" d="M256.765,274.163h-2.4v-6.736c-0.072-1.416-5.768-6.304-8.2-8.4 c-1.384-1.192-2.584-2.224-3.272-2.912c-3.344-2.848-5.168-7.104-4.912-11.495v-10.4h2.4v10.4c-0.272,3.752,1.296,7.4,4.216,9.776 c0.656,0.672,1.808,1.656,3.136,2.792c5.288,4.552,9.04,7.952,9.04,10.232L256.765,274.163L256.765,274.163z"/> </g> </g></svg></g>
  
</svg>