<svg xmlns="http://www.w3.org/2000/svg" xmlns:xlink="http://www.w3.org/1999/xlink" viewBox="0 0 256 256" width="256" height="256">
  <defs><clipPath id="bgc"><rect width="256" height="256" rx="51.2"/></clipPath><filter id="f_o4" color-interpolation-filters="sRGB"><feFlood flood-color="#f7df1e" result="c"/><feComposite in="c" in2="SourceAlpha" operator="in"/></filter></defs>
  <rect width="256" height="256" rx="51.2" fill="#f5f5f5"/>
  
  <g opacity="1" transform="translate(128,128) rotate(0)" filter="url(#f_o4)"><svg x="-76.8" y="-76.8" width="153.6" height="153.6" viewBox="0 0 24 24"><g xmlns="http://www.w3.org/2000/svg" id="SVGRepo_bgCarrier" stroke-width="0"/><g xmlns="http://www.w3.org/2000/svg" id="SVGRepo_tracerCarrier" stroke-linecap="round" stroke-linejoin="round"/><g xmlns="http://www.w3.org/2000/svg" id="SVGRepo_iconCarrier"> <title>language_json</title> <rect width="24" height="24" fill="none"/> <path d="M5,3H7V5H5v5a2,2,0,0,1-2,2,2,2,0,0,1,2,2v5H7v2H5c-1.07-.27-2-.9-2-2V15a2,2,0,0,0-2-2H0V11H1A2,2,0,0,0,3,9V5A2,2,0,0,1,5,3M19,3a2,2,0,0,1,2,2V9a2,2,0,0,0,2,2h1v2H23a2,2,0,0,0-2,2v4a2,2,0,0,1-2,2H17V19h2V14a2,2,0,0,1,2-2,2,2,0,0,1-2-2V5H17V3h2M12,15a1,1,0,1,1-1,1,1,1,0,0,1,1-1M8,15a1,1,0,1,1-1,1,1,1,0,0,1,1-1m8,0a1,1,0,1,1-1,1A1,1,0,0,1,16,15Z"/> </g></svg></g>
  
</svg>