<svg xmlns="http://www.w3.org/2000/svg" xmlns:xlink="http://www.w3.org/1999/xlink" viewBox="0 0 256 256" width="256" height="256">
  <defs><clipPath id="bgc"><rect width="256" height="256" rx="51.2"/></clipPath><filter id="f_o10" color-interpolation-filters="sRGB"><feFlood flood-color="#22c55e" result="c"/><feComposite in="c" in2="SourceAlpha" operator="in"/></filter></defs>
  <rect width="256" height="256" rx="51.2" fill="#f5f5f5"/>
  
  <g opacity="1" transform="translate(128,128) rotate(0)" filter="url(#f_o10)"><svg x="-76.8" y="-76.8" width="153.6" height="153.6" viewBox="0 0 32 32"><g xmlns="http://www.w3.org/2000/svg" id="SVGRepo_bgCarrier" stroke-width="0"/><g xmlns="http://www.w3.org/2000/svg" id="SVGRepo_tracerCarrier" stroke-linecap="round" stroke-linejoin="round"/><g xmlns="http://www.w3.org/2000/svg" id="SVGRepo_iconCarrier"> <path d="M0 2.255v5.594h2.438c1.703 0 2 1.151 2 2.745l0.016 9.88c0 5.12 4.589 9.271 10.24 9.271h13.953c1.786 0 3.354-1.109 3.354-2.813v-15.323c0-5.12-4.589-9.266-10.245-9.266h-5.875v-0.021zM7.63 5.677h2.802v14.083c0 1.885 1.313 3.344 2.854 3.344l9.557 0.042c1.995 0 3.552-1.344 3.552-2.943l-0.021-7.474c0.016-0.458-0.172-0.901-0.51-1.214-0.318-0.333-0.76-0.521-1.224-0.51-0.5 0-0.87 0.156-1.224 0.51-0.339 0.313-0.526 0.755-0.516 1.214v6.396h-2.964v-6.396c0-0.484-0.167-0.865-0.521-1.214-0.313-0.339-0.76-0.521-1.219-0.51-0.49 0-0.865 0.161-1.219 0.51s-0.521 0.729-0.521 1.214v6.401h-2.964v-6.401c0-1.266 0.479-2.385 1.385-3.286 0.875-0.885 2.073-1.375 3.318-1.365 1.25 0 2.333 0.464 3.214 1.297 0.865-0.839 2.026-1.302 3.229-1.297 1.271 0 2.401 0.464 3.313 1.365 0.896 0.859 1.396 2.047 1.391 3.286l0.010 7.99c-0.141 1.339-0.719 2.526-1.708 3.516-1.115 1.135-2.641 1.771-4.234 1.75h-10.646v-0.047c-1.302-0.141-2.464-0.693-3.427-1.625-1.125-1.099-1.708-2.458-1.708-4.010z"/> </g></svg></g>
  
</svg>