<svg xmlns="http://www.w3.org/2000/svg" xmlns:xlink="http://www.w3.org/1999/xlink" viewBox="0 0 256 256" width="256" height="256">
  <defs><clipPath id="bgc"><rect width="256" height="256" rx="51.2"/></clipPath><filter id="f_o10" color-interpolation-filters="sRGB"><feFlood flood-color="#f97316" result="c"/><feComposite in="c" in2="SourceAlpha" operator="in"/></filter></defs>
  <rect width="256" height="256" rx="51.2" fill="#000000"/>
  
  <g opacity="1" transform="translate(121,128) rotate(0)" filter="url(#f_o10)"><svg x="-84.48" y="-84.48" width="168.96" height="168.96" viewBox="0 0 1413 1413"><g xmlns="http://www.w3.org/2000/svg" id="SVGRepo_bgCarrier" stroke-width="0"/><g xmlns="http://www.w3.org/2000/svg" id="SVGRepo_tracerCarrier" stroke-linecap="round" stroke-linejoin="round"/><g xmlns="http://www.w3.org/2000/svg" id="SVGRepo_iconCarrier"> <g id="_x23_ee2629ff"> <path d="M976.4,340.1c61.9-10.9,124.8-12.5,187.3-13.5c62.4-0.5,127.4,6.2,183.1,36.9c51,20.8,79.1,83.2,60.3,135.8 c-24.4,80.6-82.2,145.1-141,202.9c-148.8,153.5-333.4,263.7-510.8,380.3c29.7-43.2,54.1-90.5,72.3-139.4 c14-38.5,27.6-78.5,29.1-120.2c2.1-42.7-6.8-88.4-34.3-122.2c-27.6-31.2-67.1-49.9-106.6-60.9C658.6,623.6,598.2,622,538.9,622 c-134.7,1-268.4,22.9-400,49.9C92.6,680.3,47.3,694.3,0,696.4c40.1-13,75.4-36.4,113.4-55.1c177.4-90,361-168,550.9-227.3 C766.2,381.7,870.8,358.3,976.4,340.1z"/> </g> </g></svg></g>
  
</svg>