<svg xmlns="http://www.w3.org/2000/svg" xmlns:xlink="http://www.w3.org/1999/xlink" viewBox="0 0 256 256" width="256" height="256">
  <defs><clipPath id="bgc"><rect width="256" height="256" rx="51.2"/></clipPath><filter id="f_o13" color-interpolation-filters="sRGB"><feFlood flood-color="#f5f5f5" result="c"/><feComposite in="c" in2="SourceAlpha" operator="in"/></filter></defs>
  <rect width="256" height="256" rx="51.2" fill="#1f2937"/>
  
  <g opacity="1" transform="translate(128,128) rotate(0)" filter="url(#f_o13)"><svg x="-76.8" y="-76.8" width="153.6" height="153.6" viewBox="0 0 15 15"><g xmlns="http://www.w3.org/2000/svg" id="SVGRepo_bgCarrier" stroke-width="0"/><g xmlns="http://www.w3.org/2000/svg" id="SVGRepo_tracerCarrier" stroke-linecap="round" stroke-linejoin="round"/><g xmlns="http://www.w3.org/2000/svg" id="SVGRepo_iconCarrier"> <path fill-rule="evenodd" clip-rule="evenodd" d="M0 7.5C0 3.35786 3.35786 0 7.5 0C11.6421 0 15 3.35786 15 7.5C15 10.087 13.6902 12.3681 11.6975 13.7163L4.90687 4.20942C4.78053 4.03255 4.5544 3.95756 4.34741 4.02389C4.14042 4.09022 4 4.28268 4 4.50004V12H5V6.06027L10.8299 14.2221C9.82661 14.7201 8.696 15 7.5 15C3.35786 15 0 11.6421 0 7.5ZM10 10V4H11V10H10Z" fill="#000000"/> </g></svg></g>
  
</svg>