<svg xmlns="http://www.w3.org/2000/svg" xmlns:xlink="http://www.w3.org/1999/xlink" viewBox="0 0 256 256" width="256" height="256">
  <defs><clipPath id="bgc"><rect width="256" height="256" rx="51.2"/></clipPath></defs>
  <rect width="256" height="256" rx="51.2" fill="#f5f5f5"/>
  
  <g opacity="1" transform="translate(128,128) rotate(0)"><svg x="-92.16" y="-92.16" width="184.32" height="184.32" viewBox="0 0 192.756 192.756"><g xmlns="http://www.w3.org/2000/svg" id="SVGRepo_bgCarrier" stroke-width="0"/><g xmlns="http://www.w3.org/2000/svg" id="SVGRepo_tracerCarrier" stroke-linecap="round" stroke-linejoin="round"/><g xmlns="http://www.w3.org/2000/svg" id="SVGRepo_iconCarrier"> <g fill-rule="evenodd" clip-rule="evenodd"> <path d="M42.741 71.477c-9.881 11.604-19.355 25.994-19.45 36.75-.037 4.047 1.255 7.58 4.354 10.256 4.46 3.854 9.374 5.213 14.264 5.221 7.146.01 14.242-2.873 19.798-5.096 9.357-3.742 112.79-48.659 112.79-48.659.998-.5.811-1.123-.438-.812-.504.126-112.603 30.505-112.603 30.505a24.771 24.771 0 0 1-6.524.934c-8.615.051-16.281-4.731-16.219-14.808.024-3.943 1.231-8.698 4.028-14.291z"/> </g> </g></svg></g>
  
</svg>