<svg xmlns="http://www.w3.org/2000/svg" xmlns:xlink="http://www.w3.org/1999/xlink" viewBox="0 0 256 256" width="256" height="256">
  <defs><clipPath id="bgc"><rect width="256" height="256" rx="51.2"/></clipPath></defs>
  <rect width="256" height="256" rx="51.2" fill="#f5f5f5"/>
  
  <g opacity="1" transform="translate(128,128) rotate(0)"><svg x="-84.48" y="-84.48" width="168.96" height="168.96" viewBox="0 0 16 16"><g xmlns="http://www.w3.org/2000/svg" id="SVGRepo_bgCarrier" stroke-width="0"/><g xmlns="http://www.w3.org/2000/svg" id="SVGRepo_tracerCarrier" stroke-linecap="round" stroke-linejoin="round"/><g xmlns="http://www.w3.org/2000/svg" id="SVGRepo_iconCarrier"> <path fill="#252960" d="M4.3 9.866l-2.2-1.31a.392.392 0 00-.55.155.371.371 0 00-.05.206v2.62c0 .145.08.279.2.361l2.6 1.548c.12.072.28.072.4 0l2.6-1.547c.12-.073.2-.207.2-.362v-2.62a.408.408 0 00-.4-.412c-.07 0-.14.02-.2.051l-2.2 1.31a.396.396 0 01-.4 0z"/> <path fill="url(#pack-color-16__paint0_linear_1133_286)" d="M4.5 10.228v2.62c0 .227.18.412.4.412.07 0 .14-.02.2-.051l2.2-1.31c.12-.072.2-.206.2-.361v-2.62a.408.408 0 00-.4-.413c-.07 0-.14.02-.2.051l-2.2 1.31a.432.432 0 00-.2.362z"/> <path fill="#DE156C" d="M11.3 9.866l-2.2-1.31a.392.392 0 00-.55.155.371.371 0 00-.05.206v2.62c0 .145.08.279.2.361l2.6 1.548c.12.072.28.072.4 0l2.6-1.547c.12-.073.2-.207.2-.362v-2.62a.408.408 0 00-.4-.412c-.07 0-.14.02-.2.051l-2.2 1.31a.396.396 0 01-.4 0z"/> <path fill="url(#pack-color-16__paint1_linear_1133_286)" d="M11.5 10.228v2.62c0 .227.18.412.4.412.07 0 .14-.02.2-.051l2.2-1.31c.12-.072.2-.206.2-.361v-2.62a.408.408 0 00-.4-.413c-.07 0-.14.02-.2.051l-2.2 1.31a.432.432 0 00-.2.362z"/> <g> <path fill="#47529D" d="M10.4 3.056l-2.2 1.31a.396.396 0 01-.4 0l-2.2-1.31a.392.392 0 00-.55.155.371.371 0 00-.05.206v2.62c0 .145.08.279.2.361l2.6 1.548c.12.072.28.072.4 0l2.6-1.548c.12-.072.2-.206.2-.36v-2.62a.408.408 0 00-.4-.413c-.07 0-.14.02-.2.051z"/> <path fill="url(#pack-color-16__paint2_linear_1133_286)" d="M10.4 3.056l-2.2 1.31a.419.419 0 00-.2.361v2.62c0 .228.18.413.4.413.07 0 .14-.02.2-.051l2.2-1.31c.12-.073.2-.207.2-.362v-2.62a.408.408 0 00-.4-.412c-.07 0-.14.02-.2.051z"/> </g> <defs> <linearGradient id="pack-color-16__paint0_linear_1133_286" x1="6.004" x2="6.004" y1="8.502" y2="13.262" gradientUnits="userSpaceOnUse"> <stop stop-color="#757CBA"/> <stop offset="1" stop-color="#252960"/> </linearGradient> <linearGradient id="pack-color-16__paint1_linear_1133_286" x1="13.004" x2="13.004" y1="8.503" y2="13.262" gradientUnits="userSpaceOnUse"> <stop stop-color="#FC72C7"/> <stop offset="1" stop-color="#DE156C"/> </linearGradient> <linearGradient id="pack-color-16__paint2_linear_1133_286" x1="9.504" x2="9.504" y1="3.002" y2="7.762" gradientUnits="userSpaceOnUse"> <stop stop-color="#8896DB"/> <stop offset="1" stop-color="#47529D"/> </linearGradient> </defs> </g></svg></g>
  
</svg>