<svg xmlns="http://www.w3.org/2000/svg" xmlns:xlink="http://www.w3.org/1999/xlink" viewBox="0 0 256 256" width="256" height="256">
  <defs><clipPath id="bgc"><rect width="256" height="256" rx="51.2"/></clipPath><filter id="f_o7" color-interpolation-filters="sRGB"><feFlood flood-color="#2563eb" result="c"/><feComposite in="c" in2="SourceAlpha" operator="in"/></filter></defs>
  <rect width="256" height="256" rx="51.2" fill="#1f2937"/>
  
  <g opacity="1" transform="translate(128,128) rotate(0)"><rect x="-64" y="-64" width="128" height="128" rx="16" fill="#ffffff"/></g>
  <g opacity="1" transform="translate(128,128) rotate(0)" filter="url(#f_o7)"><svg x="-99.84" y="-99.84" width="199.68" height="199.68" viewBox="0 0 32 32"><g xmlns="http://www.w3.org/2000/svg" id="SVGRepo_bgCarrier" stroke-width="0"/><g xmlns="http://www.w3.org/2000/svg" id="SVGRepo_tracerCarrier" stroke-linecap="round" stroke-linejoin="round"/><g xmlns="http://www.w3.org/2000/svg" id="SVGRepo_iconCarrier"> <title>powershell</title> <path d="M16.012 21.897c-0.004-0-0.009-0-0.014-0-0.637 0-1.153 0.516-1.153 1.154s0.516 1.154 1.153 1.154c0.005 0 0.010-0 0.015-0h5.539c0.003 0 0.007 0 0.011 0 0.637 0 1.153-0.516 1.153-1.153s-0.516-1.153-1.153-1.153c-0.004 0-0.008 0-0.011 0h0.001zM19.506 16.4c0.134-0.198 0.214-0.442 0.214-0.704 0-0.327-0.124-0.625-0.327-0.85l0.001 0.001-6.99-7.438c-0.239-0.227-0.562-0.367-0.918-0.367-0.736 0-1.333 0.597-1.333 1.333 0 0.326 0.117 0.625 0.311 0.856l-0.002-0.002 5.826 6.198v0.137l-9.272 6.716c-0.299 0.246-0.489 0.617-0.489 1.032 0 0.736 0.597 1.333 1.333 1.333 0.268 0 0.517-0.079 0.726-0.215l-0.005 0.003 10.283-7.385c0.265-0.163 0.482-0.382 0.638-0.641l0.005-0.009zM29.972 4.721c0.012-0.001 0.026-0.001 0.041-0.001 0.55 0 0.995 0.446 0.995 0.995 0 0.107-0.017 0.21-0.048 0.306l0.002-0.007-4.572 19.972c-0.187 0.724-0.817 1.256-1.577 1.293l-0.004 0h-22.781c-0.012 0.001-0.026 0.001-0.041 0.001-0.55 0-0.995-0.446-0.995-0.995 0-0.107 0.017-0.21 0.048-0.306l-0.002 0.007 4.572-19.972c0.187-0.724 0.817-1.256 1.577-1.293l0.004-0z"/> </g></svg></g>
  
</svg>