<svg xmlns="http://www.w3.org/2000/svg" xmlns:xlink="http://www.w3.org/1999/xlink" viewBox="0 0 256 256" width="256" height="256">
  <defs><clipPath id="bgc"><rect width="256" height="256" rx="51.2"/></clipPath></defs>
  <rect width="256" height="256" rx="51.2" fill="#f5f5f5"/>
  
  <g opacity="1" transform="translate(128,128) rotate(0)"><svg x="-76.8" y="-76.8" width="153.6" height="153.6" viewBox="-24 0 304 304"><g xmlns="http://www.w3.org/2000/svg" id="SVGRepo_bgCarrier" stroke-width="0"/><g xmlns="http://www.w3.org/2000/svg" id="SVGRepo_tracerCarrier" stroke-linecap="round" stroke-linejoin="round"/><g xmlns="http://www.w3.org/2000/svg" id="SVGRepo_iconCarrier"> <g> <polygon fill="#BCBBBB" points="216.329708 276.187929 216.329708 194.976776 243.28341 194.976776 243.28341 303.14163 0 303.14163 0 194.976776 26.9537015 194.976776 26.9537015 276.187929"> </polygon> <path d="M56.7077876,187.275718 L189.025959,214.929516 L194.626728,188.325863 L62.3085568,160.672065 L56.7077876,187.275718 L56.7077876,187.275718 Z M74.2101912,124.267065 L196.727016,181.324901 L207.928555,156.821536 L85.4117295,99.4136524 L74.2101912,124.267065 Z M108.164854,64.0587971 L212.129132,150.520671 L229.281487,129.867835 L125.31721,43.4059609 L108.164854,64.0587971 L108.164854,64.0587971 Z M175.374084,0 L153.671104,16.1022113 L234.18216,124.617114 L255.88514,108.514902 L175.374084,0 Z M53.9074031,248.884179 L189.025959,248.884179 L189.025959,221.930478 L53.9074031,221.930478 L53.9074031,248.884179 Z" fill="#F48023"> </path> </g> </g></svg></g>
  
</svg>