<svg xmlns="http://www.w3.org/2000/svg" xmlns:xlink="http://www.w3.org/1999/xlink" viewBox="0 0 256 256" width="256" height="256">
  <defs><clipPath id="bgc"><rect width="256" height="256" rx="51.2"/></clipPath></defs>
  <rect width="256" height="256" rx="51.2" fill="#f5f5f5"/>
  
  <g opacity="1" transform="translate(128,128) rotate(0)"><svg x="-76.8" y="-76.8" width="153.6" height="153.6" viewBox="0 0 256 263"><defs xmlns="http://www.w3.org/2000/svg"><linearGradient id="SVGvhlZesRv" x1="20.862%" x2="63.426%" y1="20.687%" y2="44.071%"><stop offset="0%" stop-color="#249361"/><stop offset="100%" stop-color="#3ECF8E"/></linearGradient><linearGradient id="SVGDD1qBdAT" x1="1.991%" x2="21.403%" y1="-13.158%" y2="34.708%"><stop offset="0%"/><stop offset="100%" stop-opacity="0"/></linearGradient></defs><path xmlns="http://www.w3.org/2000/svg" fill="url(#SVGvhlZesRv)" d="M149.602 258.579c-6.718 8.46-20.338 3.824-20.5-6.977l-2.367-157.984h106.229c19.24 0 29.971 22.223 18.007 37.292z"/><path xmlns="http://www.w3.org/2000/svg" fill="url(#SVGDD1qBdAT)" fill-opacity=".2" d="M149.602 258.579c-6.718 8.46-20.338 3.824-20.5-6.977l-2.367-157.984h106.229c19.24 0 29.971 22.223 18.007 37.292z"/><path xmlns="http://www.w3.org/2000/svg" fill="#3ECF8E" d="M106.399 4.37c6.717-8.461 20.338-3.826 20.5 6.976l1.037 157.984H23.037c-19.241 0-29.973-22.223-18.008-37.292z"/></svg></g>
  
</svg>