<svg xmlns="http://www.w3.org/2000/svg" xmlns:xlink="http://www.w3.org/1999/xlink" viewBox="0 0 256 256" width="256" height="256">
  <defs><clipPath id="bgc"><rect width="256" height="256" rx="51.2"/></clipPath></defs>
  <rect width="256" height="256" rx="51.2" fill="#f5f5f5"/>
  
  <g opacity="1" transform="translate(128,128) rotate(0)"><svg x="-76.8" y="-76.8" width="153.6" height="153.6" viewBox="0 0 255.99999 256"><g xmlns="http://www.w3.org/2000/svg" id="SVGRepo_bgCarrier" stroke-width="0"/><g xmlns="http://www.w3.org/2000/svg" id="SVGRepo_tracerCarrier" stroke-linecap="round" stroke-linejoin="round"/><g xmlns="http://www.w3.org/2000/svg" id="SVGRepo_iconCarrier"> <title id="title3285">Sushi</title> <metadata id="metadata2478"> <rdf:rdf xmlns:rdf="http://www.w3.org/1999/02/22-rdf-syntax-ns#"> <cc:work xmlns:cc="http://creativecommons.org/ns#" rdf:about=""> <dc:format xmlns:dc="http://purl.org/dc/elements/1.1/">image/svg+xml</dc:format> <dc:type xmlns:dc="http://purl.org/dc/elements/1.1/" rdf:resource="http://purl.org/dc/dcmitype/StillImage"/> <dc:title xmlns:dc="http://purl.org/dc/elements/1.1/">Sushi</dc:title> <cc:license rdf:resource="http://creativecommons.org/publicdomain/zero/1.0/"/> <dc:creator xmlns:dc="http://purl.org/dc/elements/1.1/"> <cc:agent> <dc:title>oksmith</dc:title> </cc:agent> </dc:creator> <dc:source xmlns:dc="http://purl.org/dc/elements/1.1/">https://openclipart.org/detail/316537</dc:source> </cc:work> <cc:license xmlns:cc="http://creativecommons.org/ns#" rdf:about="http://creativecommons.org/publicdomain/zero/1.0/"> <cc:permits rdf:resource="http://creativecommons.org/ns#Reproduction"/> <cc:permits rdf:resource="http://creativecommons.org/ns#Distribution"/> <cc:permits rdf:resource="http://creativecommons.org/ns#DerivativeWorks"/> </cc:license> </rdf:rdf> </metadata> <sodipodi:namedview xmlns:sodipodi="http://sodipodi.sourceforge.net/DTD/sodipodi-0.dtd" pagecolor="#ffffff" bordercolor="#666666" borderopacity="1" objecttolerance="10" gridtolerance="10" guidetolerance="10" xmlns:inkscape="http://www.inkscape.org/namespaces/inkscape" inkscape:pageopacity="0" inkscape:pageshadow="2" inkscape:window-width="1920" inkscape:window-height="1025" id="namedview2476" showgrid="false" inkscape:zoom="1.5922997" inkscape:cx="242.67033" inkscape:cy="-6.1140801" inkscape:window-x="-8" inkscape:window-y="-8" inkscape:window-maximized="1" inkscape:current-layer="svg2474" fit-margin-top="0" fit-margin-left="0" fit-margin-right="0" fit-margin-bottom="0"/> <defs id="defs759"> <linearGradient id="Gradient_41" gradientUnits="userSpaceOnUse" x1="412.30899" y1="135.41299" x2="498.86899" y2="135.41299"> <stop offset="0" stop-color="#676B65" id="stop295"/> <stop offset="1" stop-color="#2D2E2D" id="stop297"/> </linearGradient> <linearGradient id="Gradient_42" gradientUnits="userSpaceOnUse" x1="412.30899" y1="135.41299" x2="498.86899" y2="135.41299"> <stop offset="0" stop-color="#94948E" id="stop300"/> <stop offset="1" stop-color="#5F5C5A" id="stop302"/> </linearGradient> <linearGradient id="Gradient_43" gradientUnits="userSpaceOnUse" x1="413.03101" y1="146.614" x2="483.76599" y2="89.978996"> <stop offset="0" stop-color="#676B65" id="stop305"/> <stop offset="0.188" stop-color="#676B65" id="stop307"/> <stop offset="0.509" stop-color="#676B65" id="stop309"/> <stop offset="1" stop-color="#2D2E2D" id="stop311"/> </linearGradient> <linearGradient id="Gradient_44" gradientUnits="userSpaceOnUse" x1="417.96301" y1="115.669" x2="493.332" y2="115.669"> <stop offset="0" stop-color="#FFFFFE" id="stop314"/> <stop offset="0.618" stop-color="#DDE1E3" id="stop316"/> <stop offset="1" stop-color="#DDE1E3" id="stop318"/> </linearGradient> </defs> <g id="g2232" transform="matrix(2.7657777,0,0,2.7657777,-1132.0277,-232.72122)"> <path xmlns:sodipodi="http://sodipodi.sourceforge.net/DTD/sodipodi-0.dtd" sodipodi:nodetypes="cccccccccccccccsc" d="m 431.263,176.703 c -4.878,-0.001 -9.513,-0.953 -13.53,-3.283 -1.879,-1.094 -3.214,-2.285 -4.089,-3.546 l -1.17754,-1.65643 -0.0555,-8.51657 v -32.519 l 86.458,-33.058 v 38.602 l -0.245,0.103 c 0.066,10.681 -18.154,23.164 -20.091,25.108 -2.055,2.05 -26.826,18.768 -47.27,18.766 z m -15.616,-41.202 0.23,34.215 c 2.079,3.467 10.873,5.084 10.873,5.084 l 1.611,-35.832 c -0.377,0.089 -0.798,0.13 -1.253,0.13 -4.279,0 -11.461,-3.597 -11.461,-3.597 z" id="path1817" xmlns:inkscape="http://www.inkscape.org/namespaces/inkscape" inkscape:connector-curvature="0" style="fill:url(#Gradient_41)"/> <path d="m 426.75,174.8 c 0,0 -8.794,-1.617 -10.873,-5.084 l -0.23,-34.215 c 0,0 7.182,3.597 11.461,3.597 0.455,0 0.876,-0.041 1.253,-0.13 z" id="path1819" xmlns:inkscape="http://www.inkscape.org/namespaces/inkscape" inkscape:connector-curvature="0" style="fill:url(#Gradient_42)"/> <path d="m 442.232,99.661 c -8.319,4.631 -43.224,25.205 -24.499,36.07 20.855,12.098 58.254,-12.943 60.8,-15.489 2.538,-2.531 33.168,-23.238 13.634,-34.208 -13.174,-7.406 -41.607,9.018 -49.935,13.627 z" id="path1821" xmlns:inkscape="http://www.inkscape.org/namespaces/inkscape" inkscape:connector-curvature="0" style="fill:url(#Gradient_43)"/> <path d="m 417.963,135.969 v -4.394 l 2.078,-1.158 0.237,-2.538 c 0,0 5.084,-2.323 4.855,-3.013 -0.231,-0.69 2.078,-3.467 2.078,-3.467 0,0 2.315,-3.688 3.006,-4.156 0.697,-0.467 4.163,0.698 4.623,-0.697 0.461,-1.381 3.467,-5.315 4.394,-5.315 0.92,0 4.854,0 5.084,-2.775 0.23,-2.769 1.618,-3.014 2.316,-3.014 0.69,0 5.314,-1.602 5.314,-1.602 0,0 2.776,-1.626 4.156,-2.546 1.388,-0.936 4.171,-2.316 4.171,-2.316 l 7.622,-2.315 c 0,0 5.084,-2.316 6.472,-2.316 1.388,0 6.94,-0.92 7.86,-1.151 0.928,-0.229 4.156,-1.847 5.322,-0.467 1.157,1.395 3.235,4.869 3.235,4.869 1.158,-0.468 2.309,-0.468 2.078,1.38 -0.229,1.841 0.468,2.085 0.468,3.013 0,0.921 -0.468,2.762 -0.468,2.762 0,0 -1.157,4.171 -2.538,5.321 -1.388,1.157 -20.81,20.573 -42.772,26.585 -21.961,6.004 -29.591,-0.69 -29.591,-0.69 z" id="path1823" xmlns:inkscape="http://www.inkscape.org/namespaces/inkscape" inkscape:connector-curvature="0" style="fill:url(#Gradient_44)"/> <path d="m 428.398,132.733 c 0,2.85 -2.3,5.165 -5.151,5.165 -2.85,0 -5.158,-2.315 -5.158,-5.165 0,-2.85 2.308,-5.151 5.158,-5.151 2.851,0 5.151,2.301 5.151,5.151" id="path1825" xmlns:inkscape="http://www.inkscape.org/namespaces/inkscape" inkscape:connector-curvature="0" style="fill:#e7a886"/> <path d="m 426.194,130.899 c 0,1.626 -1.321,2.94 -2.947,2.94 -1.625,0 -2.946,-1.314 -2.946,-2.94 0,-1.632 1.321,-2.946 2.946,-2.946 1.626,0 2.947,1.314 2.947,2.946" id="path1827" xmlns:inkscape="http://www.inkscape.org/namespaces/inkscape" inkscape:connector-curvature="0" style="fill:#d25d45"/> <path d="m 424.22,129.267 c 0,0.408 -0.408,0.735 -0.921,0.735 -0.504,0 -0.912,-0.327 -0.912,-0.735 0,-0.409 0.408,-0.743 0.912,-0.743 0.513,0 0.921,0.334 0.921,0.743" id="path1829" xmlns:inkscape="http://www.inkscape.org/namespaces/inkscape" inkscape:connector-curvature="0" style="fill:#fffffe"/> <path d="m 433.557,125.259 c 0,2.85 -2.309,5.151 -5.159,5.151 -2.85,0 -5.158,-2.301 -5.158,-5.151 0,-2.85 2.308,-5.165 5.158,-5.165 2.85,0 5.159,2.315 5.159,5.165" id="path1831" xmlns:inkscape="http://www.inkscape.org/namespaces/inkscape" inkscape:connector-curvature="0" style="fill:#e7a886"/> <path d="m 431.345,123.411 c 0,1.625 -1.314,2.954 -2.947,2.954 -1.626,0 -2.946,-1.329 -2.946,-2.954 0,-1.618 1.32,-2.939 2.946,-2.939 1.633,0 2.947,1.321 2.947,2.939" id="path1833" xmlns:inkscape="http://www.inkscape.org/namespaces/inkscape" inkscape:connector-curvature="0" style="fill:#d25d45"/> <path d="m 429.378,121.778 c 0,0.408 -0.408,0.742 -0.92,0.742 -0.513,0 -0.921,-0.334 -0.921,-0.742 0,-0.408 0.408,-0.727 0.921,-0.727 0.512,0 0.92,0.319 0.92,0.727" id="path1835" xmlns:inkscape="http://www.inkscape.org/namespaces/inkscape" inkscape:connector-curvature="0" style="fill:#fffffe"/> <path d="m 436.384,134.232 c 0,2.85 -2.308,5.159 -5.158,5.159 -2.85,0 -5.159,-2.309 -5.159,-5.159 0,-2.85 2.309,-5.158 5.159,-5.158 2.85,0 5.158,2.308 5.158,5.158" id="path1837" xmlns:inkscape="http://www.inkscape.org/namespaces/inkscape" inkscape:connector-curvature="0" style="fill:#e7a886"/> <path d="m 434.172,132.392 c 0,1.625 -1.32,2.954 -2.946,2.954 -1.625,0 -2.947,-1.329 -2.947,-2.954 0,-1.633 1.322,-2.947 2.947,-2.947 1.626,0 2.946,1.314 2.946,2.947" id="path1839" xmlns:inkscape="http://www.inkscape.org/namespaces/inkscape" inkscape:connector-curvature="0" style="fill:#d25d45"/> <path d="m 432.206,130.759 c 0,0.408 -0.416,0.734 -0.921,0.734 -0.512,0 -0.92,-0.326 -0.92,-0.734 0,-0.408 0.408,-0.728 0.92,-0.728 0.505,0 0.921,0.32 0.921,0.728" id="path1841" xmlns:inkscape="http://www.inkscape.org/namespaces/inkscape" inkscape:connector-curvature="0" style="fill:#fffffe"/> <path d="m 444.696,132.903 c 0,2.851 -2.307,5.158 -5.158,5.158 -2.85,0 -5.15,-2.307 -5.15,-5.158 0,-2.849 2.3,-5.158 5.15,-5.158 2.851,0 5.158,2.309 5.158,5.158" id="path1843" xmlns:inkscape="http://www.inkscape.org/namespaces/inkscape" inkscape:connector-curvature="0" style="fill:#e7a886"/> <path d="m 442.485,131.07 c 0,1.618 -1.321,2.94 -2.947,2.94 -1.625,0 -2.946,-1.322 -2.946,-2.94 0,-1.633 1.321,-2.954 2.946,-2.954 1.626,0 2.947,1.321 2.947,2.954" id="path1845" xmlns:inkscape="http://www.inkscape.org/namespaces/inkscape" inkscape:connector-curvature="0" style="fill:#d25d45"/> <path d="m 440.518,129.437 c 0,0.402 -0.415,0.728 -0.92,0.728 -0.512,0 -0.92,-0.326 -0.92,-0.728 0,-0.415 0.408,-0.742 0.92,-0.742 0.505,0 0.92,0.327 0.92,0.742" id="path1847" xmlns:inkscape="http://www.inkscape.org/namespaces/inkscape" inkscape:connector-curvature="0" style="fill:#fffffe"/> <path d="m 441.706,120.435 c 0,2.85 -2.309,5.158 -5.159,5.158 -2.85,0 -5.158,-2.308 -5.158,-5.158 0,-2.85 2.308,-5.159 5.158,-5.159 2.85,0 5.159,2.309 5.159,5.159" id="path1849" xmlns:inkscape="http://www.inkscape.org/namespaces/inkscape" inkscape:connector-curvature="0" style="fill:#e7a886"/> <path d="m 439.494,118.602 c 0,1.618 -1.321,2.939 -2.947,2.939 -1.625,0 -2.946,-1.321 -2.946,-2.939 0,-1.633 1.321,-2.955 2.946,-2.955 1.626,0 2.947,1.322 2.947,2.955" id="path1851" xmlns:inkscape="http://www.inkscape.org/namespaces/inkscape" inkscape:connector-curvature="0" style="fill:#d25d45"/> <path d="m 437.527,116.969 c 0,0.393 -0.416,0.727 -0.927,0.727 -0.505,0 -0.913,-0.334 -0.913,-0.727 0,-0.415 0.408,-0.742 0.913,-0.742 0.511,0 0.927,0.327 0.927,0.742" id="path1853" xmlns:inkscape="http://www.inkscape.org/namespaces/inkscape" inkscape:connector-curvature="0" style="fill:#fffffe"/> <path d="m 447.19,112.946 c 0,2.858 -2.308,5.166 -5.158,5.166 -2.85,0 -5.158,-2.308 -5.158,-5.166 0,-2.849 2.308,-5.15 5.158,-5.15 2.85,0 5.158,2.301 5.158,5.15" id="path1855" xmlns:inkscape="http://www.inkscape.org/namespaces/inkscape" inkscape:connector-curvature="0" style="fill:#e7a886"/> <path d="m 444.979,111.113 c 0,1.625 -1.322,2.939 -2.947,2.939 -1.625,0 -2.946,-1.314 -2.946,-2.939 0,-1.626 1.321,-2.946 2.946,-2.946 1.625,0 2.947,1.32 2.947,2.946" id="path1857" xmlns:inkscape="http://www.inkscape.org/namespaces/inkscape" inkscape:connector-curvature="0" style="fill:#d25d45"/> <path d="m 443.012,109.487 c 0,0.402 -0.416,0.728 -0.92,0.728 -0.513,0 -0.921,-0.326 -0.921,-0.728 0,-0.408 0.408,-0.742 0.921,-0.742 0.504,0 0.92,0.334 0.92,0.742" id="path1859" xmlns:inkscape="http://www.inkscape.org/namespaces/inkscape" inkscape:connector-curvature="0" style="fill:#fffffe"/> <path d="m 461.151,110.46 c 0,2.85 -2.301,5.15 -5.151,5.15 -2.85,0 -5.158,-2.3 -5.158,-5.15 0,-2.843 2.308,-5.158 5.158,-5.158 2.85,0 5.151,2.315 5.151,5.158" id="path1861" xmlns:inkscape="http://www.inkscape.org/namespaces/inkscape" inkscape:connector-curvature="0" style="fill:#e7a886"/> <path d="m 458.939,108.612 c 0,1.625 -1.314,2.953 -2.939,2.953 -1.625,0 -2.946,-1.328 -2.946,-2.953 0,-1.633 1.321,-2.939 2.946,-2.939 1.625,0 2.939,1.306 2.939,2.939" id="path1863" xmlns:inkscape="http://www.inkscape.org/namespaces/inkscape" inkscape:connector-curvature="0" style="fill:#d25d45"/> <path d="m 456.973,106.979 c 0,0.415 -0.409,0.743 -0.913,0.743 -0.513,0 -0.928,-0.328 -0.928,-0.743 0,-0.393 0.415,-0.727 0.928,-0.727 0.504,0 0.913,0.334 0.913,0.727" id="path1865" xmlns:inkscape="http://www.inkscape.org/namespaces/inkscape" inkscape:connector-curvature="0" style="fill:#fffffe"/> <path d="m 461.492,115.789 c 0,2.835 -2.315,5.144 -5.165,5.144 -2.85,0 -5.151,-2.309 -5.151,-5.144 0,-2.857 2.301,-5.173 5.151,-5.173 2.85,0 5.165,2.316 5.165,5.173" id="path1867" xmlns:inkscape="http://www.inkscape.org/namespaces/inkscape" inkscape:connector-curvature="0" style="fill:#e7a886"/> <path d="m 459.273,113.94 c 0,1.626 -1.314,2.94 -2.946,2.94 -1.626,0 -2.939,-1.314 -2.939,-2.94 0,-1.632 1.313,-2.953 2.939,-2.953 1.632,0 2.946,1.321 2.946,2.953" id="path1869" xmlns:inkscape="http://www.inkscape.org/namespaces/inkscape" inkscape:connector-curvature="0" style="fill:#d25d45"/> <path d="m 457.307,112.308 c 0,0.408 -0.416,0.735 -0.921,0.735 -0.512,0 -0.92,-0.327 -0.92,-0.735 0,-0.409 0.408,-0.735 0.92,-0.735 0.505,0 0.921,0.326 0.921,0.735" id="path1871" xmlns:inkscape="http://www.inkscape.org/namespaces/inkscape" inkscape:connector-curvature="0" style="fill:#fffffe"/> <path d="m 471.631,101.984 c 0,2.843 -2.316,5.144 -5.158,5.144 -2.851,0 -5.159,-2.301 -5.159,-5.144 0,-2.85 2.308,-5.158 5.159,-5.158 2.842,0 5.158,2.308 5.158,5.158" id="path1873" xmlns:inkscape="http://www.inkscape.org/namespaces/inkscape" inkscape:connector-curvature="0" style="fill:#e7a886"/> <path d="m 469.419,100.136 c 0,1.633 -1.321,2.954 -2.946,2.954 -1.633,0 -2.947,-1.321 -2.947,-2.954 0,-1.625 1.314,-2.939 2.947,-2.939 1.625,0 2.946,1.314 2.946,2.939" id="path1875" xmlns:inkscape="http://www.inkscape.org/namespaces/inkscape" inkscape:connector-curvature="0" style="fill:#d25d45"/> <path d="m 467.452,98.511 c 0,0.4 -0.423,0.734 -0.928,0.734 -0.504,0 -0.92,-0.334 -0.92,-0.734 0,-0.409 0.416,-0.735 0.92,-0.735 0.505,0 0.928,0.326 0.928,0.735" id="path1877" xmlns:inkscape="http://www.inkscape.org/namespaces/inkscape" inkscape:connector-curvature="0" style="fill:#fffffe"/> <path d="m 468.795,109.963 c 0,2.849 -2.3,5.158 -5.15,5.158 -2.85,0 -5.159,-2.309 -5.159,-5.158 0,-2.851 2.309,-5.152 5.159,-5.152 2.85,0 5.15,2.301 5.15,5.152" id="path1879" xmlns:inkscape="http://www.inkscape.org/namespaces/inkscape" inkscape:connector-curvature="0" style="fill:#e7a886"/> <path d="m 466.591,108.114 c 0,1.633 -1.321,2.947 -2.946,2.947 -1.625,0 -2.947,-1.314 -2.947,-2.947 0,-1.625 1.322,-2.938 2.947,-2.938 1.625,0 2.946,1.313 2.946,2.938" id="path1881" xmlns:inkscape="http://www.inkscape.org/namespaces/inkscape" inkscape:connector-curvature="0" style="fill:#d25d45"/> <path d="m 464.617,106.489 c 0,0.408 -0.408,0.735 -0.913,0.735 -0.512,0 -0.92,-0.327 -0.92,-0.735 0,-0.408 0.408,-0.727 0.92,-0.727 0.505,0 0.913,0.319 0.913,0.727" id="path1883" xmlns:inkscape="http://www.inkscape.org/namespaces/inkscape" inkscape:connector-curvature="0" style="fill:#fffffe"/> <path d="m 467.809,118.275 c 0,2.85 -2.309,5.159 -5.159,5.159 -2.857,0 -5.158,-2.309 -5.158,-5.159 0,-2.85 2.301,-5.158 5.158,-5.158 2.85,0 5.159,2.308 5.159,5.158" id="path1885" xmlns:inkscape="http://www.inkscape.org/namespaces/inkscape" inkscape:connector-curvature="0" style="fill:#e7a886"/> <path d="m 465.589,116.435 c 0,1.625 -1.321,2.939 -2.939,2.939 -1.632,0 -2.946,-1.314 -2.946,-2.939 0,-1.633 1.314,-2.94 2.946,-2.94 1.618,0 2.939,1.307 2.939,2.94" id="path1887" xmlns:inkscape="http://www.inkscape.org/namespaces/inkscape" inkscape:connector-curvature="0" style="fill:#d25d45"/> <path d="m 463.63,114.802 c 0,0.408 -0.423,0.734 -0.928,0.734 -0.512,0 -0.92,-0.326 -0.92,-0.734 0,-0.408 0.408,-0.728 0.92,-0.728 0.505,0 0.928,0.32 0.928,0.728" id="path1889" xmlns:inkscape="http://www.inkscape.org/namespaces/inkscape" inkscape:connector-curvature="0" style="fill:#fffffe"/> <path d="m 477.709,94.637 c 0,2.842 -2.308,5.158 -5.158,5.158 -2.85,0 -5.151,-2.316 -5.151,-5.158 0,-2.851 2.301,-5.159 5.151,-5.159 2.85,0 5.158,2.308 5.158,5.159" id="path1891" xmlns:inkscape="http://www.inkscape.org/namespaces/inkscape" inkscape:connector-curvature="0" style="fill:#e7a886"/> <path d="m 475.497,92.788 c 0,1.633 -1.313,2.954 -2.946,2.954 -1.625,0 -2.947,-1.321 -2.947,-2.954 0,-1.625 1.322,-2.938 2.947,-2.938 1.633,0 2.946,1.313 2.946,2.938" id="path1893" xmlns:inkscape="http://www.inkscape.org/namespaces/inkscape" inkscape:connector-curvature="0" style="fill:#d25d45"/> <path d="m 473.53,91.155 c 0,0.408 -0.415,0.742 -0.92,0.742 -0.512,0 -0.92,-0.334 -0.92,-0.742 0,-0.408 0.408,-0.726 0.92,-0.726 0.505,0 0.92,0.318 0.92,0.726" id="path1895" xmlns:inkscape="http://www.inkscape.org/namespaces/inkscape" inkscape:connector-curvature="0" style="fill:#fffffe"/> <path d="m 487.521,110.097 c 0,2.841 -2.308,5.15 -5.159,5.15 -2.849,0 -5.15,-2.309 -5.15,-5.15 0,-2.843 2.301,-5.152 5.15,-5.152 2.851,0 5.159,2.309 5.159,5.152" id="path1897" xmlns:inkscape="http://www.inkscape.org/namespaces/inkscape" inkscape:connector-curvature="0" style="fill:#e7a886"/> <path d="m 485.309,108.256 c 0,1.633 -1.321,2.938 -2.947,2.938 -1.625,0 -2.946,-1.305 -2.946,-2.938 0,-1.626 1.321,-2.954 2.946,-2.954 1.626,0 2.947,1.328 2.947,2.954" id="path1899" xmlns:inkscape="http://www.inkscape.org/namespaces/inkscape" inkscape:connector-curvature="0" style="fill:#d25d45"/> <path d="m 483.335,106.623 c 0,0.408 -0.408,0.742 -0.913,0.742 -0.512,0 -0.92,-0.334 -0.92,-0.742 0,-0.408 0.408,-0.735 0.92,-0.735 0.505,0 0.913,0.327 0.913,0.735" id="path1901" xmlns:inkscape="http://www.inkscape.org/namespaces/inkscape" inkscape:connector-curvature="0" style="fill:#fffffe"/> <path d="m 478.444,107.632 c 0,2.85 -2.308,5.166 -5.158,5.166 -2.85,0 -5.159,-2.316 -5.159,-5.166 0,-2.85 2.309,-5.151 5.159,-5.151 2.85,0 5.158,2.301 5.158,5.151" id="path1903" xmlns:inkscape="http://www.inkscape.org/namespaces/inkscape" inkscape:connector-curvature="0" style="fill:#e7a886"/> <path d="m 476.232,105.792 c 0,1.633 -1.321,2.946 -2.946,2.946 -1.626,0 -2.947,-1.313 -2.947,-2.946 0,-1.618 1.321,-2.947 2.947,-2.947 1.625,0 2.946,1.329 2.946,2.947" id="path1905" xmlns:inkscape="http://www.inkscape.org/namespaces/inkscape" inkscape:connector-curvature="0" style="fill:#d25d45"/> <path d="m 474.258,104.174 c 0,0.4 -0.401,0.72 -0.913,0.72 -0.512,0 -0.92,-0.32 -0.92,-0.72 0,-0.408 0.408,-0.742 0.92,-0.742 0.512,0 0.913,0.334 0.913,0.742" id="path1907" xmlns:inkscape="http://www.inkscape.org/namespaces/inkscape" inkscape:connector-curvature="0" style="fill:#fffffe"/> <path d="m 450.352,118.275 c 0,2.85 -2.308,5.159 -5.158,5.159 -2.85,0 -5.158,-2.309 -5.158,-5.159 0,-2.85 2.308,-5.158 5.158,-5.158 2.85,0 5.158,2.308 5.158,5.158" id="path1909" xmlns:inkscape="http://www.inkscape.org/namespaces/inkscape" inkscape:connector-curvature="0" style="fill:#e7a886"/> <path d="m 448.141,116.427 c 0,1.633 -1.322,2.947 -2.947,2.947 -1.633,0 -2.947,-1.314 -2.947,-2.947 0,-1.625 1.314,-2.939 2.947,-2.939 1.625,0 2.947,1.314 2.947,2.939" id="path1911" xmlns:inkscape="http://www.inkscape.org/namespaces/inkscape" inkscape:connector-curvature="0" style="fill:#d25d45"/> <path d="m 446.166,114.802 c 0,0.408 -0.408,0.734 -0.92,0.734 -0.505,0 -0.921,-0.326 -0.921,-0.734 0,-0.408 0.416,-0.728 0.921,-0.728 0.512,0 0.92,0.32 0.92,0.728" id="path1913" xmlns:inkscape="http://www.inkscape.org/namespaces/inkscape" inkscape:connector-curvature="0" style="fill:#fffffe"/> <path d="m 448.853,125.081 c 0,2.85 -2.308,5.158 -5.159,5.158 -2.849,0 -5.158,-2.308 -5.158,-5.158 0,-2.843 2.309,-5.144 5.158,-5.144 2.851,0 5.159,2.301 5.159,5.144" id="path1915" xmlns:inkscape="http://www.inkscape.org/namespaces/inkscape" inkscape:connector-curvature="0" style="fill:#e7a886"/> <path d="m 446.641,123.248 c 0,1.633 -1.321,2.938 -2.947,2.938 -1.625,0 -2.946,-1.305 -2.946,-2.938 0,-1.626 1.321,-2.954 2.946,-2.954 1.626,0 2.947,1.328 2.947,2.954" id="path1917" xmlns:inkscape="http://www.inkscape.org/namespaces/inkscape" inkscape:connector-curvature="0" style="fill:#d25d45"/> <path d="m 444.674,121.622 c 0,0.401 -0.415,0.735 -0.92,0.735 -0.512,0 -0.92,-0.334 -0.92,-0.735 0,-0.408 0.408,-0.742 0.92,-0.742 0.505,0 0.92,0.334 0.92,0.742" id="path1919" xmlns:inkscape="http://www.inkscape.org/namespaces/inkscape" inkscape:connector-curvature="0" style="fill:#fffffe"/> <path d="m 453.18,130.744 c 0,2.85 -2.316,5.158 -5.166,5.158 -2.85,0 -5.151,-2.308 -5.151,-5.158 0,-2.85 2.301,-5.158 5.151,-5.158 2.85,0 5.166,2.308 5.166,5.158" id="path1921" xmlns:inkscape="http://www.inkscape.org/namespaces/inkscape" inkscape:connector-curvature="0" style="fill:#e7a886"/> <path d="m 450.961,128.895 c 0,1.633 -1.314,2.948 -2.947,2.948 -1.625,0 -2.939,-1.315 -2.939,-2.948 0,-1.625 1.314,-2.938 2.939,-2.938 1.633,0 2.947,1.313 2.947,2.938" id="path1923" xmlns:inkscape="http://www.inkscape.org/namespaces/inkscape" inkscape:connector-curvature="0" style="fill:#d25d45"/> <path d="m 448.994,127.263 c 0,0.408 -0.408,0.742 -0.921,0.742 -0.511,0 -0.92,-0.334 -0.92,-0.742 0,-0.409 0.409,-0.72 0.92,-0.72 0.513,0 0.921,0.311 0.921,0.72" id="path1925" xmlns:inkscape="http://www.inkscape.org/namespaces/inkscape" inkscape:connector-curvature="0" style="fill:#fffffe"/> <path d="m 462.813,127.753 c 0,2.849 -2.308,5.15 -5.158,5.15 -2.842,0 -5.151,-2.301 -5.151,-5.15 0,-2.858 2.309,-5.166 5.151,-5.166 2.85,0 5.158,2.308 5.158,5.166" id="path1927" xmlns:inkscape="http://www.inkscape.org/namespaces/inkscape" inkscape:connector-curvature="0" style="fill:#e7a886"/> <path d="m 460.609,125.905 c 0,1.625 -1.321,2.953 -2.954,2.953 -1.625,0 -2.946,-1.328 -2.946,-2.953 0,-1.618 1.321,-2.939 2.946,-2.939 1.633,0 2.954,1.321 2.954,2.939" id="path1929" xmlns:inkscape="http://www.inkscape.org/namespaces/inkscape" inkscape:connector-curvature="0" style="fill:#d25d45"/> <path d="m 458.635,124.272 c 0,0.415 -0.408,0.743 -0.92,0.743 -0.505,0 -0.921,-0.328 -0.921,-0.743 0,-0.401 0.416,-0.727 0.921,-0.727 0.512,0 0.92,0.326 0.92,0.727" id="path1931" xmlns:inkscape="http://www.inkscape.org/namespaces/inkscape" inkscape:connector-curvature="0" style="fill:#fffffe"/> <path d="m 453.18,111.284 c 0,2.85 -2.316,5.165 -5.166,5.165 -2.85,0 -5.151,-2.315 -5.151,-5.165 0,-2.843 2.301,-5.151 5.151,-5.151 2.85,0 5.166,2.308 5.166,5.151" id="path1933" xmlns:inkscape="http://www.inkscape.org/namespaces/inkscape" inkscape:connector-curvature="0" style="fill:#e7a886"/> <path d="m 450.961,109.45 c 0,1.626 -1.314,2.94 -2.947,2.94 -1.625,0 -2.939,-1.314 -2.939,-2.94 0,-1.625 1.314,-2.946 2.939,-2.946 1.633,0 2.947,1.321 2.947,2.946" id="path1935" xmlns:inkscape="http://www.inkscape.org/namespaces/inkscape" inkscape:connector-curvature="0" style="fill:#d25d45"/> <path d="m 448.994,107.817 c 0,0.409 -0.408,0.743 -0.921,0.743 -0.511,0 -0.92,-0.334 -0.92,-0.743 0,-0.408 0.409,-0.742 0.92,-0.742 0.513,0 0.921,0.334 0.921,0.742" id="path1937" xmlns:inkscape="http://www.inkscape.org/namespaces/inkscape" inkscape:connector-curvature="0" style="fill:#fffffe"/> <path d="m 457.663,121.43 c 0,2.842 -2.309,5.158 -5.159,5.158 -2.85,0 -5.158,-2.316 -5.158,-5.158 0,-2.851 2.308,-5.152 5.158,-5.152 2.85,0 5.159,2.301 5.159,5.152" id="path1939" xmlns:inkscape="http://www.inkscape.org/namespaces/inkscape" inkscape:connector-curvature="0" style="fill:#e7a886"/> <path d="m 455.451,119.589 c 0,1.625 -1.321,2.946 -2.947,2.946 -1.625,0 -2.939,-1.321 -2.939,-2.946 0,-1.625 1.314,-2.946 2.939,-2.946 1.626,0 2.947,1.321 2.947,2.946" id="path1941" xmlns:inkscape="http://www.inkscape.org/namespaces/inkscape" inkscape:connector-curvature="0" style="fill:#d25d45"/> <path d="m 453.484,117.964 c 0,0.4 -0.416,0.726 -0.921,0.726 -0.511,0 -0.919,-0.326 -0.919,-0.726 0,-0.402 0.408,-0.742 0.919,-0.742 0.505,0 0.921,0.34 0.921,0.742" id="path1943" xmlns:inkscape="http://www.inkscape.org/namespaces/inkscape" inkscape:connector-curvature="0" style="fill:#fffffe"/> <path d="m 439.383,126.246 c 0,2.851 -2.309,5.166 -5.166,5.166 -2.85,0 -5.151,-2.315 -5.151,-5.166 0,-2.843 2.301,-5.15 5.151,-5.15 2.857,0 5.166,2.307 5.166,5.15" id="path1945" xmlns:inkscape="http://www.inkscape.org/namespaces/inkscape" inkscape:connector-curvature="0" style="fill:#e7a886"/> <path d="m 437.163,124.413 c 0,1.625 -1.321,2.946 -2.946,2.946 -1.625,0 -2.939,-1.321 -2.939,-2.946 0,-1.633 1.314,-2.946 2.939,-2.946 1.625,0 2.946,1.313 2.946,2.946" id="path1947" xmlns:inkscape="http://www.inkscape.org/namespaces/inkscape" inkscape:connector-curvature="0" style="fill:#d25d45"/> <path d="m 435.196,122.78 c 0,0.408 -0.415,0.735 -0.92,0.735 -0.512,0 -0.92,-0.327 -0.92,-0.735 0,-0.408 0.408,-0.742 0.92,-0.742 0.505,0 0.92,0.334 0.92,0.742" id="path1949" xmlns:inkscape="http://www.inkscape.org/namespaces/inkscape" inkscape:connector-curvature="0" style="fill:#fffffe"/> <path d="m 463.481,103.149 c 0,2.85 -2.308,5.151 -5.158,5.151 -2.843,0 -5.158,-2.301 -5.158,-5.151 0,-2.849 2.315,-5.166 5.158,-5.166 2.85,0 5.158,2.317 5.158,5.166" id="path1951" xmlns:inkscape="http://www.inkscape.org/namespaces/inkscape" inkscape:connector-curvature="0" style="fill:#e7a886"/> <path d="m 461.277,101.309 c 0,1.618 -1.321,2.946 -2.954,2.946 -1.625,0 -2.946,-1.328 -2.946,-2.946 0,-1.633 1.321,-2.955 2.946,-2.955 1.633,0 2.954,1.322 2.954,2.955" id="path1953" xmlns:inkscape="http://www.inkscape.org/namespaces/inkscape" inkscape:connector-curvature="0" style="fill:#d25d45"/> <path d="m 459.295,99.676 c 0,0.401 -0.4,0.742 -0.912,0.742 -0.505,0 -0.921,-0.341 -0.921,-0.742 0,-0.415 0.416,-0.735 0.921,-0.735 0.512,0 0.912,0.32 0.912,0.735" id="path1955" xmlns:inkscape="http://www.inkscape.org/namespaces/inkscape" inkscape:connector-curvature="0" style="fill:#fffffe"/> <path d="m 469.805,98.496 c 0,2.843 -2.316,5.144 -5.166,5.144 -2.842,0 -5.151,-2.301 -5.151,-5.144 0,-2.851 2.309,-5.158 5.151,-5.158 2.85,0 5.166,2.307 5.166,5.158" id="path1957" xmlns:inkscape="http://www.inkscape.org/namespaces/inkscape" inkscape:connector-curvature="0" style="fill:#e7a886"/> <path d="m 467.593,96.647 c 0,1.626 -1.321,2.955 -2.954,2.955 -1.618,0 -2.939,-1.329 -2.939,-2.955 0,-1.625 1.321,-2.938 2.939,-2.938 1.633,0 2.954,1.313 2.954,2.938" id="path1959" xmlns:inkscape="http://www.inkscape.org/namespaces/inkscape" inkscape:connector-curvature="0" style="fill:#d25d45"/> <path d="m 465.619,95.015 c 0,0.408 -0.408,0.742 -0.913,0.742 -0.512,0 -0.928,-0.334 -0.928,-0.742 0,-0.409 0.416,-0.735 0.928,-0.735 0.505,0 0.913,0.326 0.913,0.735" id="path1961" xmlns:inkscape="http://www.inkscape.org/namespaces/inkscape" inkscape:connector-curvature="0" style="fill:#fffffe"/> <path d="m 458.331,102.972 c 0,2.849 -2.309,5.165 -5.159,5.165 -2.85,0 -5.158,-2.316 -5.158,-5.165 0,-2.836 2.308,-5.144 5.158,-5.144 2.85,0 5.159,2.308 5.159,5.144" id="path1963" xmlns:inkscape="http://www.inkscape.org/namespaces/inkscape" inkscape:connector-curvature="0" style="fill:#e7a886"/> <path d="m 456.119,101.138 c 0,1.632 -1.321,2.939 -2.947,2.939 -1.625,0 -2.946,-1.307 -2.946,-2.939 0,-1.625 1.321,-2.947 2.946,-2.947 1.626,0 2.947,1.322 2.947,2.947" id="path1965" xmlns:inkscape="http://www.inkscape.org/namespaces/inkscape" inkscape:connector-curvature="0" style="fill:#d25d45"/> <path d="m 454.152,99.505 c 0,0.408 -0.416,0.742 -0.927,0.742 -0.505,0 -0.913,-0.334 -0.913,-0.742 0,-0.401 0.408,-0.735 0.913,-0.735 0.511,0 0.927,0.334 0.927,0.735" id="path1967" xmlns:inkscape="http://www.inkscape.org/namespaces/inkscape" inkscape:connector-curvature="0" style="fill:#fffffe"/> <path d="m 475.119,118.943 c 0,2.85 -2.308,5.159 -5.158,5.159 -2.843,0 -5.158,-2.309 -5.158,-5.159 0,-2.85 2.315,-5.158 5.158,-5.158 2.85,0 5.158,2.308 5.158,5.158" id="path1969" xmlns:inkscape="http://www.inkscape.org/namespaces/inkscape" inkscape:connector-curvature="0" style="fill:#e7a886"/> <path d="m 472.907,117.095 c 0,1.632 -1.321,2.947 -2.946,2.947 -1.626,0 -2.947,-1.315 -2.947,-2.947 0,-1.625 1.321,-2.939 2.947,-2.939 1.625,0 2.946,1.314 2.946,2.939" id="path1971" xmlns:inkscape="http://www.inkscape.org/namespaces/inkscape" inkscape:connector-curvature="0" style="fill:#d25d45"/> <path d="m 470.94,115.47 c 0,0.408 -0.416,0.734 -0.92,0.734 -0.512,0 -0.92,-0.326 -0.92,-0.734 0,-0.409 0.408,-0.743 0.92,-0.743 0.504,0 0.92,0.334 0.92,0.743" id="path1973" xmlns:inkscape="http://www.inkscape.org/namespaces/inkscape" inkscape:connector-curvature="0" style="fill:#fffffe"/> <path d="m 486.593,96.499 c 0,2.851 -2.308,5.151 -5.158,5.151 -2.85,0 -5.159,-2.3 -5.159,-5.151 0,-2.85 2.309,-5.158 5.159,-5.158 2.85,0 5.158,2.308 5.158,5.158" id="path1975" xmlns:inkscape="http://www.inkscape.org/namespaces/inkscape" inkscape:connector-curvature="0" style="fill:#e7a886"/> <path d="m 484.381,94.651 c 0,1.633 -1.32,2.954 -2.946,2.954 -1.625,0 -2.947,-1.321 -2.947,-2.954 0,-1.625 1.322,-2.946 2.947,-2.946 1.626,0 2.946,1.321 2.946,2.946" id="path1977" xmlns:inkscape="http://www.inkscape.org/namespaces/inkscape" inkscape:connector-curvature="0" style="fill:#d25d45"/> <path d="m 482.407,93.019 c 0,0.408 -0.408,0.742 -0.92,0.742 -0.505,0 -0.913,-0.334 -0.913,-0.742 0,-0.409 0.408,-0.735 0.913,-0.735 0.512,0 0.92,0.326 0.92,0.735" id="path1979" xmlns:inkscape="http://www.inkscape.org/namespaces/inkscape" inkscape:connector-curvature="0" style="fill:#fffffe"/> <path d="m 495.069,96.826 c 0,2.85 -2.308,5.165 -5.151,5.165 -2.85,0 -5.166,-2.315 -5.166,-5.165 0,-2.85 2.316,-5.151 5.166,-5.151 2.843,0 5.151,2.301 5.151,5.151" id="path1981" xmlns:inkscape="http://www.inkscape.org/namespaces/inkscape" inkscape:connector-curvature="0" style="fill:#e7a886"/> <path d="m 492.857,94.985 c 0,1.625 -1.314,2.94 -2.939,2.94 -1.633,0 -2.946,-1.315 -2.946,-2.94 0,-1.618 1.313,-2.939 2.946,-2.939 1.625,0 2.939,1.321 2.939,2.939" id="path1983" xmlns:inkscape="http://www.inkscape.org/namespaces/inkscape" inkscape:connector-curvature="0" style="fill:#d25d45"/> <path d="m 490.891,93.352 c 0,0.409 -0.409,0.735 -0.921,0.735 -0.512,0 -0.92,-0.326 -0.92,-0.735 0,-0.4 0.408,-0.727 0.92,-0.727 0.512,0 0.921,0.327 0.921,0.727" id="path1985" xmlns:inkscape="http://www.inkscape.org/namespaces/inkscape" inkscape:connector-curvature="0" style="fill:#fffffe"/> <path d="m 491.744,92.343 c 0,2.85 -2.308,5.151 -5.158,5.151 -2.843,0 -5.158,-2.301 -5.158,-5.151 0,-2.85 2.315,-5.165 5.158,-5.165 2.85,0 5.158,2.315 5.158,5.165" id="path1987" xmlns:inkscape="http://www.inkscape.org/namespaces/inkscape" inkscape:connector-curvature="0" style="fill:#e7a886"/> <path d="m 489.532,90.495 c 0,1.625 -1.313,2.954 -2.946,2.954 -1.626,0 -2.947,-1.329 -2.947,-2.954 0,-1.625 1.321,-2.939 2.947,-2.939 1.633,0 2.946,1.314 2.946,2.939" id="path1989" xmlns:inkscape="http://www.inkscape.org/namespaces/inkscape" inkscape:connector-curvature="0" style="fill:#d25d45"/> <path d="m 487.565,88.862 c 0,0.408 -0.408,0.742 -0.913,0.742 -0.511,0 -0.927,-0.334 -0.927,-0.742 0,-0.408 0.416,-0.734 0.927,-0.734 0.505,0 0.913,0.326 0.913,0.734" id="path1991" xmlns:inkscape="http://www.inkscape.org/namespaces/inkscape" inkscape:connector-curvature="0" style="fill:#fffffe"/> <path d="m 484.463,113.214 c 0,2.849 -2.308,5.165 -5.15,5.165 -2.851,0 -5.159,-2.316 -5.159,-5.165 0,-2.843 2.308,-5.152 5.159,-5.152 2.842,0 5.15,2.309 5.15,5.152" id="path1993" xmlns:inkscape="http://www.inkscape.org/namespaces/inkscape" inkscape:connector-curvature="0" style="fill:#e7a886"/> <path d="m 482.259,111.373 c 0,1.633 -1.321,2.946 -2.946,2.946 -1.633,0 -2.947,-1.313 -2.947,-2.946 0,-1.626 1.314,-2.939 2.947,-2.939 1.625,0 2.946,1.313 2.946,2.939" id="path1995" xmlns:inkscape="http://www.inkscape.org/namespaces/inkscape" inkscape:connector-curvature="0" style="fill:#d25d45"/> <path d="m 480.284,109.747 c 0,0.408 -0.415,0.735 -0.92,0.735 -0.505,0 -0.92,-0.327 -0.92,-0.735 0,-0.408 0.415,-0.742 0.92,-0.742 0.505,0 0.92,0.334 0.92,0.742" id="path1997" xmlns:inkscape="http://www.inkscape.org/namespaces/inkscape" inkscape:connector-curvature="0" style="fill:#fffffe"/> <path d="m 492.412,104.308 c 0,2.849 -2.316,5.15 -5.158,5.15 -2.851,0 -5.158,-2.301 -5.158,-5.15 0,-2.843 2.307,-5.152 5.158,-5.152 2.842,0 5.158,2.309 5.158,5.152" id="path1999" xmlns:inkscape="http://www.inkscape.org/namespaces/inkscape" inkscape:connector-curvature="0" style="fill:#e7a886"/> <path d="m 490.2,102.467 c 0,1.633 -1.321,2.946 -2.946,2.946 -1.626,0 -2.947,-1.313 -2.947,-2.946 0,-1.626 1.321,-2.94 2.947,-2.94 1.625,0 2.946,1.314 2.946,2.94" id="path2001" xmlns:inkscape="http://www.inkscape.org/namespaces/inkscape" inkscape:connector-curvature="0" style="fill:#d25d45"/> <path d="m 488.233,100.834 c 0,0.408 -0.416,0.742 -0.927,0.742 -0.505,0 -0.921,-0.334 -0.921,-0.742 0,-0.408 0.416,-0.735 0.921,-0.735 0.511,0 0.927,0.327 0.927,0.735" id="path2003" xmlns:inkscape="http://www.inkscape.org/namespaces/inkscape" inkscape:connector-curvature="0" style="fill:#fffffe"/> <path d="m 480.611,115.789 c 0,2.835 -2.316,5.144 -5.158,5.144 -2.85,0 -5.158,-2.309 -5.158,-5.144 0,-2.857 2.308,-5.173 5.158,-5.173 2.842,0 5.158,2.316 5.158,5.173" id="path2005" xmlns:inkscape="http://www.inkscape.org/namespaces/inkscape" inkscape:connector-curvature="0" style="fill:#e7a886"/> <path d="m 478.399,113.94 c 0,1.626 -1.321,2.94 -2.946,2.94 -1.633,0 -2.954,-1.314 -2.954,-2.94 0,-1.632 1.321,-2.953 2.954,-2.953 1.625,0 2.946,1.321 2.946,2.953" id="path2007" xmlns:inkscape="http://www.inkscape.org/namespaces/inkscape" inkscape:connector-curvature="0" style="fill:#d25d45"/> <path d="m 476.425,112.308 c 0,0.408 -0.408,0.735 -0.92,0.735 -0.505,0 -0.921,-0.327 -0.921,-0.735 0,-0.409 0.416,-0.735 0.921,-0.735 0.512,0 0.92,0.326 0.92,0.735" id="path2009" xmlns:inkscape="http://www.inkscape.org/namespaces/inkscape" inkscape:connector-curvature="0" style="fill:#fffffe"/> <path d="m 489.421,106.638 c 0,2.849 -2.316,5.15 -5.158,5.15 -2.85,0 -5.159,-2.301 -5.159,-5.15 0,-2.85 2.309,-5.159 5.159,-5.159 2.842,0 5.158,2.309 5.158,5.159" id="path2011" xmlns:inkscape="http://www.inkscape.org/namespaces/inkscape" inkscape:connector-curvature="0" style="fill:#e7a886"/> <path d="m 487.202,104.797 c 0,1.633 -1.321,2.946 -2.939,2.946 -1.633,0 -2.947,-1.313 -2.947,-2.946 0,-1.625 1.314,-2.946 2.947,-2.946 1.618,0 2.939,1.321 2.939,2.946" id="path2013" xmlns:inkscape="http://www.inkscape.org/namespaces/inkscape" inkscape:connector-curvature="0" style="fill:#d25d45"/> <path d="m 485.242,103.164 c 0,0.401 -0.415,0.742 -0.928,0.742 -0.504,0 -0.919,-0.341 -0.919,-0.742 0,-0.4 0.415,-0.734 0.919,-0.734 0.513,0 0.928,0.334 0.928,0.734" id="path2015" xmlns:inkscape="http://www.inkscape.org/namespaces/inkscape" inkscape:connector-curvature="0" style="fill:#fffffe"/> <path d="m 483.602,110.297 c 0,2.843 -2.308,5.143 -5.158,5.143 -2.85,0 -5.158,-2.3 -5.158,-5.143 0,-2.851 2.308,-5.158 5.158,-5.158 2.85,0 5.158,2.307 5.158,5.158" id="path2017" xmlns:inkscape="http://www.inkscape.org/namespaces/inkscape" inkscape:connector-curvature="0" style="fill:#e7a886"/> <path d="m 481.391,108.448 c 0,1.633 -1.322,2.954 -2.947,2.954 -1.633,0 -2.947,-1.321 -2.947,-2.954 0,-1.625 1.314,-2.938 2.947,-2.938 1.625,0 2.947,1.313 2.947,2.938" id="path2019" xmlns:inkscape="http://www.inkscape.org/namespaces/inkscape" inkscape:connector-curvature="0" style="fill:#d25d45"/> <path d="m 479.416,106.815 c 0,0.409 -0.408,0.743 -0.913,0.743 -0.512,0 -0.92,-0.334 -0.92,-0.743 0,-0.4 0.408,-0.726 0.92,-0.726 0.505,0 0.913,0.326 0.913,0.726" id="path2021" xmlns:inkscape="http://www.inkscape.org/namespaces/inkscape" inkscape:connector-curvature="0" style="fill:#fffffe"/> <path d="m 477.835,118.676 c 0,2.843 -2.308,5.151 -5.158,5.151 -2.85,0 -5.158,-2.308 -5.158,-5.151 0,-2.85 2.308,-5.165 5.158,-5.165 2.85,0 5.158,2.315 5.158,5.165" id="path2023" xmlns:inkscape="http://www.inkscape.org/namespaces/inkscape" inkscape:connector-curvature="0" style="fill:#e7a886"/> <path d="m 475.616,116.835 c 0,1.626 -1.313,2.939 -2.939,2.939 -1.625,0 -2.947,-1.313 -2.947,-2.939 0,-1.633 1.322,-2.953 2.947,-2.953 1.626,0 2.939,1.32 2.939,2.953" id="path2025" xmlns:inkscape="http://www.inkscape.org/namespaces/inkscape" inkscape:connector-curvature="0" style="fill:#d25d45"/> <path d="m 473.649,115.202 c 0,0.408 -0.408,0.735 -0.92,0.735 -0.504,0 -0.92,-0.327 -0.92,-0.735 0,-0.408 0.416,-0.742 0.92,-0.742 0.512,0 0.92,0.334 0.92,0.742" id="path2027" xmlns:inkscape="http://www.inkscape.org/namespaces/inkscape" inkscape:connector-curvature="0" style="fill:#fffffe"/> <path d="m 481.442,100.811 c 0,2.858 -2.315,5.159 -5.158,5.159 -2.85,0 -5.158,-2.301 -5.158,-5.159 0,-2.842 2.308,-5.158 5.158,-5.158 2.843,0 5.158,2.316 5.158,5.158" id="path2029" xmlns:inkscape="http://www.inkscape.org/namespaces/inkscape" inkscape:connector-curvature="0" style="fill:#e7a886"/> <path d="m 479.23,98.978 c 0,1.619 -1.321,2.947 -2.946,2.947 -1.633,0 -2.946,-1.328 -2.946,-2.947 0,-1.626 1.313,-2.939 2.946,-2.939 1.625,0 2.946,1.313 2.946,2.939" id="path2031" xmlns:inkscape="http://www.inkscape.org/namespaces/inkscape" inkscape:connector-curvature="0" style="fill:#d25d45"/> <path d="m 477.256,97.346 c 0,0.408 -0.408,0.742 -0.92,0.742 -0.505,0 -0.92,-0.334 -0.92,-0.742 0,-0.409 0.415,-0.736 0.92,-0.736 0.512,0 0.92,0.327 0.92,0.736" id="path2033" xmlns:inkscape="http://www.inkscape.org/namespaces/inkscape" inkscape:connector-curvature="0" style="fill:#fffffe"/> <path d="m 474.956,115.276 c 0,2.851 -2.309,5.159 -5.151,5.159 -2.85,0 -5.166,-2.308 -5.166,-5.159 0,-2.849 2.316,-5.15 5.166,-5.15 2.842,0 5.151,2.301 5.151,5.15" id="path2035" xmlns:inkscape="http://www.inkscape.org/namespaces/inkscape" inkscape:connector-curvature="0" style="fill:#e7a886"/> <path d="m 472.744,113.436 c 0,1.625 -1.321,2.954 -2.939,2.954 -1.633,0 -2.954,-1.329 -2.954,-2.954 0,-1.632 1.321,-2.939 2.954,-2.939 1.618,0 2.939,1.307 2.939,2.939" id="path2037" xmlns:inkscape="http://www.inkscape.org/namespaces/inkscape" inkscape:connector-curvature="0" style="fill:#d25d45"/> <path d="m 470.777,111.804 c 0,0.415 -0.408,0.742 -0.921,0.742 -0.511,0 -0.919,-0.327 -0.919,-0.742 0,-0.402 0.408,-0.728 0.919,-0.728 0.513,0 0.921,0.326 0.921,0.728" id="path2039" xmlns:inkscape="http://www.inkscape.org/namespaces/inkscape" inkscape:connector-curvature="0" style="fill:#fffffe"/> <path d="m 470.131,123.1 c 0,2.835 -2.308,5.158 -5.151,5.158 -2.849,0 -5.165,-2.323 -5.165,-5.158 0,-2.858 2.316,-5.159 5.165,-5.159 2.843,0 5.151,2.301 5.151,5.159" id="path2041" xmlns:inkscape="http://www.inkscape.org/namespaces/inkscape" inkscape:connector-curvature="0" style="fill:#e7a886"/> <path d="m 467.92,121.251 c 0,1.626 -1.314,2.939 -2.94,2.939 -1.632,0 -2.946,-1.313 -2.946,-2.939 0,-1.625 1.314,-2.939 2.946,-2.939 1.626,0 2.94,1.314 2.94,2.939" id="path2043" xmlns:inkscape="http://www.inkscape.org/namespaces/inkscape" inkscape:connector-curvature="0" style="fill:#d25d45"/> <path d="m 465.953,119.626 c 0,0.4 -0.408,0.727 -0.913,0.727 -0.512,0 -0.928,-0.327 -0.928,-0.727 0,-0.408 0.416,-0.742 0.928,-0.742 0.505,0 0.913,0.334 0.913,0.742" id="path2045" xmlns:inkscape="http://www.inkscape.org/namespaces/inkscape" inkscape:connector-curvature="0" style="fill:#fffffe"/> <path d="m 436.213,120.22 c 0,2.849 -2.308,5.158 -5.15,5.158 -2.85,0 -5.159,-2.309 -5.159,-5.158 0,-2.85 2.309,-5.159 5.159,-5.159 2.842,0 5.15,2.309 5.15,5.159" id="path2047" xmlns:inkscape="http://www.inkscape.org/namespaces/inkscape" inkscape:connector-curvature="0" style="fill:#e7a886"/> <path d="m 434.002,118.379 c 0,1.633 -1.314,2.946 -2.939,2.946 -1.625,0 -2.947,-1.313 -2.947,-2.946 0,-1.625 1.322,-2.939 2.947,-2.939 1.625,0 2.939,1.314 2.939,2.939" id="path2049" xmlns:inkscape="http://www.inkscape.org/namespaces/inkscape" inkscape:connector-curvature="0" style="fill:#d25d45"/> <path d="m 432.035,116.754 c 0,0.393 -0.408,0.734 -0.921,0.734 -0.511,0 -0.92,-0.341 -0.92,-0.734 0,-0.408 0.409,-0.735 0.92,-0.735 0.513,0 0.921,0.327 0.921,0.735" id="path2051" xmlns:inkscape="http://www.inkscape.org/namespaces/inkscape" inkscape:connector-curvature="0" style="fill:#fffffe"/> <path d="m 427.574,126.38 c 0,2.849 -2.315,5.15 -5.165,5.15 -2.843,0 -5.151,-2.301 -5.151,-5.15 0,-2.85 2.308,-5.158 5.151,-5.158 2.85,0 5.165,2.308 5.165,5.158" id="path2053" xmlns:inkscape="http://www.inkscape.org/namespaces/inkscape" inkscape:connector-curvature="0" style="fill:#e7a886"/> <path d="m 425.355,124.539 c 0,1.618 -1.313,2.946 -2.946,2.946 -1.626,0 -2.939,-1.328 -2.939,-2.946 0,-1.625 1.313,-2.946 2.939,-2.946 1.633,0 2.946,1.321 2.946,2.946" id="path2055" xmlns:inkscape="http://www.inkscape.org/namespaces/inkscape" inkscape:connector-curvature="0" style="fill:#d25d45"/> <path d="m 423.389,122.906 c 0,0.402 -0.409,0.742 -0.921,0.742 -0.512,0 -0.92,-0.34 -0.92,-0.742 0,-0.4 0.408,-0.734 0.92,-0.734 0.512,0 0.921,0.334 0.921,0.734" id="path2057" xmlns:inkscape="http://www.inkscape.org/namespaces/inkscape" inkscape:connector-curvature="0" style="fill:#fffffe"/> <path d="m 441.327,113.28 c 0,2.85 -2.315,5.151 -5.158,5.151 -2.85,0 -5.158,-2.301 -5.158,-5.151 0,-2.843 2.308,-5.158 5.158,-5.158 2.843,0 5.158,2.315 5.158,5.158" id="path2059" xmlns:inkscape="http://www.inkscape.org/namespaces/inkscape" inkscape:connector-curvature="0" style="fill:#e7a886"/> <path d="m 439.108,111.433 c 0,1.625 -1.314,2.953 -2.939,2.953 -1.626,0 -2.946,-1.328 -2.946,-2.953 0,-1.619 1.32,-2.94 2.946,-2.94 1.625,0 2.939,1.321 2.939,2.94" id="path2061" xmlns:inkscape="http://www.inkscape.org/namespaces/inkscape" inkscape:connector-curvature="0" style="fill:#d25d45"/> <path d="m 437.148,109.8 c 0,0.415 -0.415,0.742 -0.927,0.742 -0.505,0 -0.92,-0.327 -0.92,-0.742 0,-0.402 0.415,-0.721 0.92,-0.721 0.512,0 0.927,0.319 0.927,0.721" id="path2063" xmlns:inkscape="http://www.inkscape.org/namespaces/inkscape" inkscape:connector-curvature="0" style="fill:#fffffe"/> <path d="m 439.754,133.847 c 0,2.849 -2.309,5.15 -5.158,5.15 -2.851,0 -5.158,-2.301 -5.158,-5.15 0,-2.843 2.307,-5.152 5.158,-5.152 2.849,0 5.158,2.309 5.158,5.152" id="path2065" xmlns:inkscape="http://www.inkscape.org/namespaces/inkscape" inkscape:connector-curvature="0" style="fill:#e7a886"/> <path d="m 437.542,132.006 c 0,1.618 -1.321,2.946 -2.946,2.946 -1.633,0 -2.947,-1.328 -2.947,-2.946 0,-1.626 1.314,-2.94 2.947,-2.94 1.625,0 2.946,1.314 2.946,2.94" id="path2067" xmlns:inkscape="http://www.inkscape.org/namespaces/inkscape" inkscape:connector-curvature="0" style="fill:#d25d45"/> <path d="m 435.575,130.373 c 0,0.408 -0.416,0.742 -0.928,0.742 -0.512,0 -0.913,-0.334 -0.913,-0.742 0,-0.401 0.401,-0.735 0.913,-0.735 0.512,0 0.928,0.334 0.928,0.735" id="path2069" xmlns:inkscape="http://www.inkscape.org/namespaces/inkscape" inkscape:connector-curvature="0" style="fill:#fffffe"/> <path d="m 448.793,132.674 c 0,2.849 -2.308,5.158 -5.158,5.158 -2.85,0 -5.158,-2.309 -5.158,-5.158 0,-2.851 2.308,-5.158 5.158,-5.158 2.85,0 5.158,2.307 5.158,5.158" id="path2071" xmlns:inkscape="http://www.inkscape.org/namespaces/inkscape" inkscape:connector-curvature="0" style="fill:#e7a886"/> <path d="m 446.574,130.825 c 0,1.633 -1.313,2.947 -2.939,2.947 -1.633,0 -2.947,-1.314 -2.947,-2.947 0,-1.625 1.314,-2.938 2.947,-2.938 1.626,0 2.939,1.313 2.939,2.938" id="path2073" xmlns:inkscape="http://www.inkscape.org/namespaces/inkscape" inkscape:connector-curvature="0" style="fill:#d25d45"/> <path d="m 444.615,129.2 c 0,0.408 -0.416,0.735 -0.927,0.735 -0.505,0 -0.914,-0.327 -0.914,-0.735 0,-0.408 0.409,-0.742 0.914,-0.742 0.511,0 0.927,0.334 0.927,0.742" id="path2075" xmlns:inkscape="http://www.inkscape.org/namespaces/inkscape" inkscape:connector-curvature="0" style="fill:#fffffe"/> <path d="m 451.547,106.073 c 0,2.851 -2.316,5.158 -5.166,5.158 -2.842,0 -5.151,-2.307 -5.151,-5.158 0,-2.849 2.309,-5.158 5.151,-5.158 2.85,0 5.166,2.309 5.166,5.158" id="path2077" xmlns:inkscape="http://www.inkscape.org/namespaces/inkscape" inkscape:connector-curvature="0" style="fill:#e7a886"/> <path d="m 449.328,104.226 c 0,1.632 -1.314,2.954 -2.947,2.954 -1.625,0 -2.946,-1.322 -2.946,-2.954 0,-1.625 1.321,-2.932 2.946,-2.932 1.633,0 2.947,1.307 2.947,2.932" id="path2079" xmlns:inkscape="http://www.inkscape.org/namespaces/inkscape" inkscape:connector-curvature="0" style="fill:#d25d45"/> <path d="m 447.361,102.601 c 0,0.415 -0.408,0.734 -0.921,0.734 -0.504,0 -0.919,-0.319 -0.919,-0.734 0,-0.402 0.415,-0.728 0.919,-0.728 0.513,0 0.921,0.326 0.921,0.728" id="path2081" xmlns:inkscape="http://www.inkscape.org/namespaces/inkscape" inkscape:connector-curvature="0" style="fill:#fffffe"/> <path d="m 457.173,130.433 c 0,2.849 -2.301,5.172 -5.151,5.172 -2.85,0 -5.158,-2.323 -5.158,-5.172 0,-2.843 2.308,-5.144 5.158,-5.144 2.85,0 5.151,2.301 5.151,5.144" id="path2083" xmlns:inkscape="http://www.inkscape.org/namespaces/inkscape" inkscape:connector-curvature="0" style="fill:#e7a886"/> <path d="m 454.961,128.599 c 0,1.632 -1.314,2.939 -2.939,2.939 -1.633,0 -2.954,-1.307 -2.954,-2.939 0,-1.625 1.321,-2.939 2.954,-2.939 1.625,0 2.939,1.314 2.939,2.939" id="path2085" xmlns:inkscape="http://www.inkscape.org/namespaces/inkscape" inkscape:connector-curvature="0" style="fill:#d25d45"/> <path d="m 452.994,126.966 c 0,0.408 -0.408,0.735 -0.92,0.735 -0.505,0 -0.921,-0.327 -0.921,-0.735 0,-0.401 0.416,-0.735 0.921,-0.735 0.512,0 0.92,0.334 0.92,0.735" id="path2087" xmlns:inkscape="http://www.inkscape.org/namespaces/inkscape" inkscape:connector-curvature="0" style="fill:#fffffe"/> </g> </g></svg></g>
  
</svg>