<svg xmlns="http://www.w3.org/2000/svg" xmlns:xlink="http://www.w3.org/1999/xlink" viewBox="0 0 256 256" width="256" height="256">
  <defs><clipPath id="bgc"><rect width="256" height="256" rx="51.2"/></clipPath></defs>
  <rect width="256" height="256" rx="51.2" fill="#f5f5f5"/>
  
  <g opacity="1" transform="translate(128,128) rotate(0)"><svg x="-99.84" y="-99.84" width="199.68" height="199.68" viewBox="0 0 32 32"><g xmlns="http://www.w3.org/2000/svg" id="SVGRepo_bgCarrier" stroke-width="0"/><g xmlns="http://www.w3.org/2000/svg" id="SVGRepo_tracerCarrier" stroke-linecap="round" stroke-linejoin="round"/><g xmlns="http://www.w3.org/2000/svg" id="SVGRepo_iconCarrier"><title>file_type_tailwind</title><path d="M9,13.7q1.4-5.6,7-5.6c5.6,0,6.3,4.2,9.1,4.9q2.8.7,4.9-2.1-1.4,5.6-7,5.6c-5.6,0-6.3-4.2-9.1-4.9Q11.1,10.9,9,13.7ZM2,22.1q1.4-5.6,7-5.6c5.6,0,6.3,4.2,9.1,4.9q2.8.7,4.9-2.1-1.4,5.6-7,5.6c-5.6,0-6.3-4.2-9.1-4.9Q4.1,19.3,2,22.1Z" style="fill:#44a8b3"/></g></svg></g>
  
</svg>