<svg xmlns="http://www.w3.org/2000/svg" xmlns:xlink="http://www.w3.org/1999/xlink" viewBox="0 0 256 256" width="256" height="256">
  <defs><clipPath id="bgc"><rect width="256" height="256" rx="51.2"/></clipPath><filter id="f_o1" color-interpolation-filters="sRGB"><feFlood flood-color="#f5f5f5" result="c"/><feComposite in="c" in2="SourceAlpha" operator="in"/></filter></defs>
  <rect width="256" height="256" rx="51.2" fill="#1f2937"/>
  
  <g opacity="1" transform="translate(128,128) rotate(0)" filter="url(#f_o1)"><svg x="-84.48" y="-84.48" width="168.96" height="168.96" viewBox="0 0 24 24"><g xmlns="http://www.w3.org/2000/svg" id="SVGRepo_bgCarrier" stroke-width="0"/><g xmlns="http://www.w3.org/2000/svg" id="SVGRepo_tracerCarrier" stroke-linecap="round" stroke-linejoin="round"/><g xmlns="http://www.w3.org/2000/svg" id="SVGRepo_iconCarrier"><path d="m12 0c-6.627 0-12 5.373-12 12s5.373 12 12 12 12-5.373 12-12c0-6.627-5.373-12-12-12zm0 1.846c5.595.007 10.128 4.545 10.128 10.141 0 5.601-4.54 10.141-10.141 10.141s-10.141-4.54-10.141-10.141c0-2.8 1.135-5.335 2.97-7.17 1.837-1.835 4.374-2.97 7.176-2.97h.007zm0 2.77c-4.392.774-8.308 4.824-8.308 9.23 2.149-3.794 3.584-4.067 3.981-4.067s.606.206.606.663v5.654c0 .703-1.366.588-1.818.519 1.67 2.485 5.539 2.77 5.539 2.77l1.846-1.846 1.846.923c2.914-1.334 4.615-4.19 4.615-4.615-.701.868-1.646 1.515-2.731 1.836l-.039.01c-.245 0-.923-.126-.923-.462v-6.693c0-.581 1.342-2.354 1.846-3-3.332.873-4.298 2.394-4.298 2.394s-.253-.548-1.24-.548c.501.473.838 1.114.922 1.832l.001.014v5.654c-.525.373-1.144.653-1.813.801l-.034.006c-.64 0-.952-.26-.952-.75s.029-6.634.029-6.634-.923.339-.923-1.558c0-.949 1.846-2.135 1.846-2.135z"/></g></svg></g>
  
</svg>