<svg xmlns="http://www.w3.org/2000/svg" xmlns:xlink="http://www.w3.org/1999/xlink" viewBox="0 0 256 256" width="256" height="256">
  <defs><clipPath id="bgc"><rect width="256" height="256" rx="51.2"/></clipPath></defs>
  <rect width="256" height="256" rx="51.2" fill="#f5f5f5"/>
  
  <g opacity="1" transform="translate(128,128) rotate(45)"><svg x="-76.8" y="-76.8" width="153.6" height="153.6" viewBox="0 0 512 512"><g xmlns="http://www.w3.org/2000/svg" id="SVGRepo_bgCarrier" stroke-width="0"/><g xmlns="http://www.w3.org/2000/svg" id="SVGRepo_tracerCarrier" stroke-linecap="round" stroke-linejoin="round"/><g xmlns="http://www.w3.org/2000/svg" id="SVGRepo_iconCarrier"> <path d="M432.128,170.748h-131.36h-11.4c-12.176,0-31.944,0-48.576,0c-26.08,0-75.624-39.984-121.696-39.984S0,179.724,0,230.436 V255.5h280.776h19.992H440.72v-76.16C440.72,174.612,436.856,170.748,432.128,170.748z"/> <path d="M300.768,255.5h-19.992H0v26.064c0,50.712,73.016,99.672,119.088,99.672s95.616-39.984,121.696-39.984 c16.632,0,36.4,0,48.576,0c6.92,0,11.4,0,11.4,0h131.36c4.728,0,8.592-3.864,8.592-8.592V255.5L300.768,255.5L300.768,255.5z"/> <rect x="440.72" y="206.388" style="fill:#CCCCCC;" width="71.28" height="98.224"/> <rect x="440.72" y="206.388" style="fill:#999999;" width="15" height="98.224"/> <path style="fill:#09BA98;" d="M440.72,185.524H122.568c-37.768,0-68.672,30.904-68.672,68.672l0,0 c0,37.768,30.904,68.672,68.672,68.672H440.72V185.524z"/> <g> <path style="fill:#FFFFFF;" d="M199.608,256.34c-0.256-4.84-0.568-10.664-0.52-14.984h-0.144 c-1.192,4.072-2.632,8.392-4.384,13.184l-6.136,16.84h-3.384l-5.616-16.528c-1.656-4.904-3.04-9.384-4.024-13.496h-0.096 c-0.104,4.32-0.36,10.144-0.672,15.344l-0.928,14.888h-4.272l2.424-34.712h5.712l5.928,16.792c1.44,4.272,2.624,8.08,3.504,11.688 h0.16c0.872-3.504,2.112-7.32,3.656-11.688L197,236.876h5.712l2.16,34.712h-4.376L199.608,256.34z"/> <path style="fill:#FFFFFF;" d="M214.472,259.948c0.104,6.136,4.024,8.656,8.56,8.656c3.24,0,5.192-0.568,6.896-1.288l0.776,3.248 c-1.592,0.712-4.32,1.544-8.296,1.544c-7.672,0-12.256-5.048-12.256-12.568c0-7.52,4.432-13.44,11.688-13.44 c8.136,0,10.312,7.152,10.312,11.736c0,0.928-0.104,1.656-0.16,2.112H214.472z M227.76,256.7c0.048-2.888-1.184-7.368-6.28-7.368 c-4.584,0-6.592,4.224-6.952,7.368H227.76z"/> <path style="fill:#FFFFFF;" d="M237.768,253.404c0-2.576-0.048-4.688-0.208-6.752h3.968l0.208,4.024h0.16 c1.392-2.368,3.704-4.576,7.824-4.576c3.4,0,5.976,2.056,7.056,4.992h0.104c0.776-1.392,1.752-2.464,2.776-3.24 c1.496-1.136,3.136-1.752,5.52-1.752c3.296,0,8.184,2.16,8.184,10.808v14.68h-4.432v-14.112c0-4.784-1.752-7.672-5.408-7.672 c-2.576,0-4.576,1.896-5.352,4.12c-0.208,0.616-0.36,1.44-0.36,2.272v15.392h-4.432v-14.936c0-3.96-1.752-6.848-5.2-6.848 c-2.84,0-4.888,2.256-5.616,4.528c-0.256,0.664-0.36,1.44-0.36,2.208v15.04h-4.432L237.768,253.404L237.768,253.404z"/> <path style="fill:#FFFFFF;" d="M303.32,258.924c0,9.216-6.384,13.232-12.416,13.232c-6.752,0-11.952-4.952-11.952-12.824 c0-8.344,5.456-13.232,12.36-13.232C298.48,246.1,303.32,251.292,303.32,258.924z M283.544,259.172 c0,5.456,3.136,9.576,7.568,9.576c4.32,0,7.568-4.072,7.568-9.68c0-4.216-2.112-9.576-7.472-9.576 C285.864,249.492,283.544,254.444,283.544,259.172z"/> <path style="fill:#FFFFFF;" d="M309.056,254.444c0-2.944-0.048-5.464-0.208-7.784h3.968l0.16,4.904h0.208 c1.128-3.352,3.864-5.456,6.896-5.456c0.52,0,0.88,0.048,1.288,0.144v4.272c-0.472-0.096-0.928-0.144-1.544-0.144 c-3.2,0-5.456,2.416-6.072,5.816c-0.104,0.616-0.208,1.328-0.208,2.104v13.296h-4.488L309.056,254.444L309.056,254.444z"/> <path style="fill:#FFFFFF;" d="M328.848,246.652l5.456,14.728c0.568,1.656,1.184,3.608,1.592,5.104H336 c0.456-1.496,0.976-3.4,1.592-5.2l4.952-14.632h4.784l-6.8,17.776c-3.248,8.552-5.456,12.928-8.552,15.608 c-2.208,1.96-4.432,2.728-5.568,2.936l-1.128-3.816c1.128-0.36,2.624-1.088,3.96-2.208c1.232-0.976,2.776-2.728,3.816-5.048 c0.208-0.472,0.36-0.832,0.36-1.088s-0.104-0.616-0.312-1.184l-9.224-22.976L328.848,246.652L328.848,246.652z"/> </g> <rect x="13.936" y="252.996" style="fill:#0EC6A2;" width="26.08" height="5.008"/> <path style="fill:#FFFFFF;" d="M119.088,284.868c-15.92,0-28.872-12.952-28.872-28.872s12.952-28.872,28.872-28.872 s28.88,12.952,28.88,28.872S135.016,284.868,119.088,284.868z M119.088,232.132c-13.152,0-23.864,10.704-23.864,23.864 c0,13.152,10.712,23.864,23.864,23.864s23.872-10.712,23.872-23.864C142.96,242.836,132.248,232.132,119.088,232.132z"/> <g style="opacity:0.3;"> <path style="fill:#FFFFFF;" d="M432.128,170.748h-131.36h-11.4c-12.176,0-31.944,0-48.576,0c-26.08,0-75.624-39.984-121.696-39.984 S0,179.724,0,230.436V255.5h280.776h19.992H440.72v-76.16C440.72,174.612,436.856,170.748,432.128,170.748z"/> </g> </g></svg></g>
  
</svg>