<svg xmlns="http://www.w3.org/2000/svg" xmlns:xlink="http://www.w3.org/1999/xlink" viewBox="0 0 256 256" width="256" height="256">
  <defs><clipPath id="bgc"><rect width="256" height="256" rx="51.2"/></clipPath></defs>
  <rect width="256" height="256" rx="51.2" fill="#f5f5f5"/>
  
  <g opacity="1" transform="translate(128,128) rotate(45)"><svg x="-76.8" y="-76.8" width="153.6" height="153.6" viewBox="0 0 512.016 512.016"><g xmlns="http://www.w3.org/2000/svg" id="SVGRepo_bgCarrier" stroke-width="0"/><g xmlns="http://www.w3.org/2000/svg" id="SVGRepo_tracerCarrier" stroke-linecap="round" stroke-linejoin="round"/><g xmlns="http://www.w3.org/2000/svg" id="SVGRepo_iconCarrier"> <path d="M432.128,170.756h-131.36h-11.4c-12.176,0-31.944,0-48.576,0c-26.08,0-75.624-39.984-121.696-39.984S0,179.732,0,230.444 v25.064h280.776h19.992H440.72v-76.16C440.72,174.62,436.856,170.756,432.128,170.756z"/> <path d="M300.768,255.508h-19.992H0v26.064c0,50.712,73.016,99.672,119.088,99.672s95.616-39.984,121.696-39.984 c16.632,0,36.4,0,48.576,0c6.92,0,11.4,0,11.4,0h131.36c4.728,0,8.592-3.864,8.592-8.592v-77.16L300.768,255.508L300.768,255.508z"/> <g style="opacity:0.3;"> <path style="fill:#FFFFFF;" d="M432.128,170.756h-131.36h-11.4c-12.176,0-31.944,0-48.576,0c-26.08,0-75.624-39.984-121.696-39.984 S0,179.732,0,230.444v25.064h280.776h19.992H440.72v-76.16C440.72,174.62,436.856,170.756,432.128,170.756z"/> </g> <rect x="440.72" y="206.396" style="fill:#CCCBCA;" width="71.28" height="98.224"/> <g> <path style="fill:#DB2B42;" d="M440.72,185.532H122.568c-37.768,0-68.672,30.904-68.672,68.672l0,0 c0,37.768,30.904,68.672,68.672,68.672H440.72V185.532z"/> <rect x="13.936" y="253.004" style="fill:#DB2B42;" width="26.08" height="5.008"/> </g> <g> <path style="fill:#FFFFFF;" d="M119.088,284.876c-15.92,0-28.872-12.952-28.872-28.872c0-15.92,12.952-28.872,28.872-28.872 s28.88,12.952,28.88,28.872C147.968,271.924,135.016,284.876,119.088,284.876z M119.088,232.14 c-13.152,0-23.864,10.704-23.864,23.864c0,13.152,10.712,23.864,23.864,23.864s23.872-10.712,23.872-23.864 C142.96,242.844,132.248,232.14,119.088,232.14z"/> <rect x="440.688" y="297.556" style="fill:#FFFFFF;" width="71.28" height="7.008"/> <rect x="440.736" y="206.356" style="fill:#FFFFFF;" width="71.28" height="7.008"/> </g> </g></svg></g>
  
</svg>