<svg xmlns="http://www.w3.org/2000/svg" xmlns:xlink="http://www.w3.org/1999/xlink" viewBox="0 0 256 256" width="256" height="256">
  <defs><clipPath id="bgc"><rect width="256" height="256" rx="51.2"/></clipPath></defs>
  <rect width="256" height="256" rx="51.2" fill="#374151"/>
  
  <g opacity="1" transform="translate(128,128) rotate(45)"><svg x="-76.8" y="-76.8" width="153.6" height="153.6" viewBox="0 0 512 512"><g xmlns="http://www.w3.org/2000/svg" id="SVGRepo_bgCarrier" stroke-width="0"/><g xmlns="http://www.w3.org/2000/svg" id="SVGRepo_tracerCarrier" stroke-linecap="round" stroke-linejoin="round"/><g xmlns="http://www.w3.org/2000/svg" id="SVGRepo_iconCarrier"> <path style="fill:#F91E1E;" d="M432.128,170.736H240.8c-26.08,0-75.624-40-121.696-40S0,179.712,0,230.392v25.064h440.72v-76.16 C440.688,174.568,436.856,170.752,432.128,170.736z"/> <path style="fill:#E21B1B;" d="M300.8,255.496H0v26.096c0,50.712,73.016,99.672,119.088,99.672s95.616-40,121.696-40H432.12 c4.736-0.016,8.576-3.856,8.592-8.592v-77.184L300.8,255.496z"/> <rect x="440.72" y="206.384" style="fill:#E8E8E8;" width="71.28" height="98.224"/> <path d="M440.72,185.512H122.568c-37.88,0.112-68.56,30.792-68.672,68.672l0,0c0.112,37.88,30.792,68.56,68.672,68.672H440.72 V185.512z"/> <path style="fill:#FFFFFF;" d="M119.088,284.864c-15.944-0.024-28.856-12.968-28.832-28.912s12.968-28.856,28.912-28.832 C135.096,227.144,148,240.064,148,255.992C147.984,271.944,135.04,284.864,119.088,284.864z M119.088,232.128 c-13.176,0.008-23.864,10.696-23.856,23.872c0.008,13.176,10.696,23.864,23.872,23.856c13.176-0.008,23.856-10.688,23.856-23.864 C142.944,242.816,132.264,232.136,119.088,232.128z"/> <g> <rect x="440.72" y="297.6" style="fill:#AAAAAA;" width="71.28" height="7.008"/> <rect x="440.72" y="206.376" style="fill:#AAAAAA;" width="71.28" height="7.008"/> </g> <g style="opacity:0.3;"> <path style="fill:#FFFFFF;" d="M432.128,170.736H240.8c-26.08,0-75.624-40-121.696-40S0,179.712,0,230.392v25.064h440.72v-76.16 C440.688,174.568,436.856,170.752,432.128,170.736z"/> </g> <rect x="13.936" y="252.992" style="fill:#FFFFFF;" width="26.08" height="5.008"/> </g></svg></g>
  
</svg>